<svg xmlns="http://www.w3.org/2000/svg" width="19" height="16" viewBox="0 0 19 16">
    <path fill="#3A3E49" fill-rule="nonzero" d="M18.574 4.916c0-.48-.324-.918-.89-1.201L10.958.352C10.504.125 9.911 0 9.287 0c-.624 0-1.218.125-1.672.352L.89 3.715c-.566.283-.89.72-.89 1.2 0 .481.324.919.89 1.201l1.465.733v3.816c0 1.084.76 2.313 1.729 2.798l3.531 1.765c.47.235 1.07.352 1.672.352.602 0 1.203-.117 1.672-.352l3.531-1.765c.97-.485 1.73-1.714 1.73-2.798V6.849l1.266-.633v9.24a.544.544 0 1 0 1.088 0V4.918v-.002zm-17.484 0c.012-.03.081-.125.287-.228l6.725-3.362c.301-.151.733-.238 1.185-.238.451 0 .883.087 1.185.237l6.092 3.046H11.33c-.272-.74-1.085-1.277-2.043-1.277-1.18 0-2.141.817-2.141 1.822 0 1.004.96 1.821 2.14 1.821.959 0 1.772-.538 2.044-1.277h5.234l-6.092 3.046c-.301.15-.733.237-1.185.237-.451 0-.883-.087-1.185-.237L1.377 5.143c-.206-.103-.275-.198-.287-.227zm9.25 0c0 .397-.482.733-1.053.733-.57 0-1.053-.336-1.053-.733 0-.398.482-.734 1.053-.734.57 0 1.053.336 1.053.734zm4.79 5.749c0 .671-.526 1.524-1.127 1.824l-3.53 1.766c-.632.315-1.74.315-2.37 0L4.57 12.489c-.6-.3-1.128-1.153-1.128-1.824V7.393L7.615 9.48c.454.227 1.048.352 1.672.352.624 0 1.218-.125 1.672-.352l4.172-2.086v3.272z"/>
</svg>
