<svg xmlns="http://www.w3.org/2000/svg" width="24" height="24" viewBox="0 0 24 24">
    <g fill="#3A3E49" fill-rule="evenodd">
        <path d="M19.619 11.524v-3.81a3.333 3.333 0 0 0-3.333-3.333H7.714a3.333 3.333 0 0 0-3.333 3.333v8.572a3.333 3.333 0 0 0 3.333 3.333h4.762c.79 0 1.429-.64 1.429-1.429v-1.904a3.333 3.333 0 0 1 3.333-3.334h.952c.79 0 1.429-.64 1.429-1.428zm-.07 1.955a2.37 2.37 0 0 1-1.359.426h-.952a2.381 2.381 0 0 0-2.38 2.38v1.905c0 .403-.1.782-.277 1.114a7.151 7.151 0 0 0 4.968-5.825zM7.714 3.43h8.572a4.286 4.286 0 0 1 4.285 4.285v4.762a8.095 8.095 0 0 1-8.095 8.095H7.714a4.286 4.286 0 0 1-4.285-4.285V7.714A4.286 4.286 0 0 1 7.714 3.43z"/>
        <rect width="9.429" height="1.029" x="6.857" y="7.714" rx=".514"/>
        <rect width="6" height="1.029" x="6.857" y="10.286" rx=".514"/>
    </g>
</svg>
