<svg xmlns="http://www.w3.org/2000/svg" width="17" height="18" viewBox="0 0 17 18">
    <path fill="#3A3E49" fill-rule="nonzero" d="M4.767 11.852h9.918a2.046 2.046 0 0 0 2.042-2.042V5.637v-.015-.03c0-.007 0-.014-.003-.022 0-.007-.004-.018-.004-.026 0-.007-.004-.015-.004-.022-.003-.007-.003-.015-.007-.026-.004-.007-.004-.015-.007-.022-.004-.007-.004-.015-.008-.022a.18.18 0 0 1-.011-.026.08.08 0 0 0-.011-.019l-.011-.022c-.004-.007-.008-.011-.011-.018-.004-.008-.011-.015-.015-.023-.004-.007-.007-.01-.015-.018-.004-.007-.011-.011-.015-.019-.003-.007-.01-.01-.014-.018-.004-.007-.012-.011-.015-.015l-.019-.018c-.007-.004-.01-.011-.018-.015-.008-.004-.015-.011-.022-.015l-.019-.011a.077.077 0 0 1-.022-.015l-.022-.01-.023-.012-.022-.011c-.007-.004-.015-.004-.022-.008a.069.069 0 0 0-.026-.007c-.007 0-.015-.004-.018-.004-.011-.003-.019-.003-.03-.003-.004 0-.007-.004-.015-.004L3.728 3.406V1.652c0-.018 0-.037-.004-.051 0-.004 0-.008-.004-.015l-.003-.033c-.004-.012-.004-.019-.008-.03 0-.007-.003-.011-.003-.019l-.011-.033c0-.004-.004-.01-.004-.015a.11.11 0 0 0-.015-.03c-.004-.003-.004-.01-.007-.014a.077.077 0 0 0-.015-.022c-.004-.008-.008-.011-.011-.019-.004-.007-.008-.01-.011-.018-.004-.008-.011-.015-.015-.022l-.011-.011-.022-.023-.012-.01c-.007-.008-.014-.016-.025-.023-.004-.004-.012-.007-.015-.011-.008-.007-.015-.011-.022-.019a.341.341 0 0 0-.03-.018c-.004-.004-.007-.004-.011-.007l-.048-.023L.694.04a.499.499 0 1 0-.388.92l2.42 1.022v10.942c0 1.036.776 1.895 1.779 2.024a2.018 2.018 0 0 0-.289 1.036c0 1.113.906 2.016 2.016 2.016a2.02 2.02 0 0 0 2.016-2.016c0-.37-.1-.722-.277-1.017h4.491c-.178.3-.277.647-.277 1.017 0 1.113.906 2.016 2.016 2.016a2.02 2.02 0 0 0 2.016-2.016 2.02 2.02 0 0 0-2.016-2.016H4.767c-.577 0-1.043-.47-1.043-1.044V11.57c.303.178.662.282 1.043.282zm2.486 4.128a1.02 1.02 0 0 1-1.017 1.017 1.022 1.022 0 0 1-1.017-1.017c0-.558.458-1.017 1.017-1.017a1.02 1.02 0 0 1 1.017 1.017zm7.969 0a1.02 1.02 0 0 1-1.018 1.017 1.022 1.022 0 0 1-1.017-1.017c0-.558.459-1.017 1.017-1.017a1.02 1.02 0 0 1 1.018 1.017zm-.537-5.127H4.767c-.577 0-1.043-.47-1.043-1.043V4.412L15.73 6.066v3.74c0 .58-.47 1.047-1.044 1.047z"/>
</svg>
