<svg xmlns="http://www.w3.org/2000/svg" width="16" height="16" viewBox="0 0 16 16">
    <path fill="#3A3E49" fill-rule="nonzero" d="M6.5 9a.5.5 0 0 1 .5.5v6a.5.5 0 0 1-.5.5h-6a.5.5 0 0 1-.5-.5v-6A.5.5 0 0 1 .5 9zm9 0a.5.5 0 0 1 .5.5v6a.5.5 0 0 1-.5.5h-6a.5.5 0 0 1-.5-.5v-6a.5.5 0 0 1 .5-.5zM6 10H1v5h5v-5zm9 0h-5v5h5v-5zM6.5 0a.5.5 0 0 1 .5.5v6a.5.5 0 0 1-.5.5h-6a.5.5 0 0 1-.5-.5v-6A.5.5 0 0 1 .5 0zm9 0a.5.5 0 0 1 .5.5v6a.5.5 0 0 1-.5.5h-6a.5.5 0 0 1-.5-.5v-6a.5.5 0 0 1 .5-.5zM6 1H1v5h5V1zm9 0h-5v5h5V1z"/>
</svg>
