<svg xmlns="http://www.w3.org/2000/svg" width="20" height="16" viewBox="0 0 20 16">
    <path fill="#3A3E49" fill-rule="nonzero" d="M18.833 1.291l-.878-.454a7.673 7.673 0 0 0-6.972.001l-1.19.616L8.6.837a7.673 7.673 0 0 0-6.972.001l-.876.453A1.386 1.386 0 0 0 0 2.526v11.44a1.39 1.39 0 0 0 2.027 1.236A6.794 6.794 0 0 1 8.2 15.2l1.391.72.016.006.021.01.033.011.02.007a.396.396 0 0 0 .038.007l.018.004a.418.418 0 0 0 .11 0l.019-.004a.405.405 0 0 0 .036-.007l.021-.007a.466.466 0 0 0 .054-.02l.016-.008 1.39-.718a6.794 6.794 0 0 1 6.172-.001 1.39 1.39 0 0 0 2.03-1.235V2.526c0-.52-.29-.997-.752-1.235zM5.115 13.586a7.66 7.66 0 0 0-3.487.838.516.516 0 0 1-.754-.458V2.526c0-.193.108-.37.28-.458l.874-.452A6.795 6.795 0 0 1 8.2 1.615l1.155.597v12.602l-.755-.39a7.653 7.653 0 0 0-3.485-.838zm13.595.38a.516.516 0 0 1-.755.457 7.673 7.673 0 0 0-6.972.001l-.753.39V2.212l1.153-.596a6.795 6.795 0 0 1 6.172-.001l.876.453c.172.088.28.265.28.458v11.44z"/>
</svg>
