<svg xmlns="http://www.w3.org/2000/svg" width="21" height="18" viewBox="0 0 21 18">
    <path fill="#1F2949" fill-rule="nonzero" d="M17.38 8.078c.29 0 .524.234.524.523v8.845a.523.523 0 0 1-.523.523h-5.228a.523.523 0 0 1-.523-.523V12.38a1.57 1.57 0 0 0-1.569-1.568 1.57 1.57 0 0 0-1.568 1.568v5.066a.523.523 0 0 1-.523.523H2.74a.523.523 0 0 1-.522-.523V8.6a.523.523 0 0 1 1.045 0v8.322h4.183V12.38a2.617 2.617 0 0 1 2.614-2.614 2.617 2.617 0 0 1 2.614 2.614v4.543h4.183V8.6c0-.289.234-.523.523-.523zM9.753.132a.523.523 0 0 1 .618 0l9.538 6.984a.523.523 0 1 1-.617.844l-9.23-6.758L.831 7.96a.523.523 0 0 1-.617-.844z"/>
</svg>
