<svg xmlns="http://www.w3.org/2000/svg" width="24" height="24" viewBox="0 0 24 24">
    <path fill="#3A3E49" fill-rule="evenodd" d="M18.667 5.333h1.428a.476.476 0 0 1 0 .953h-1.428v1.428a.476.476 0 1 1-.953 0V6.286h-1.428a.476.476 0 1 1 0-.953h1.428V3.905a.476.476 0 1 1 .953 0v1.428zM4.38 14.857h5.238c.263 0 .476.213.476.476 0 .79.64 1.429 1.429 1.429h.952c.79 0 1.429-.64 1.429-1.429 0-.263.213-.476.476-.476h5.238V9.62a.476.476 0 1 1 .952 0v8.571a2.381 2.381 0 0 1-2.38 2.381H5.81a2.381 2.381 0 0 1-2.381-2.38V5.81a2.381 2.381 0 0 1 2.38-2.381h8.572a.476.476 0 0 1 0 .952H5.81c-.79 0-1.429.64-1.429 1.429v9.047zm0 .953v2.38c0 .79.64 1.429 1.429 1.429h12.38c.79 0 1.429-.64 1.429-1.429v-2.38h-4.81a2.382 2.382 0 0 1-2.333 1.904h-.952A2.382 2.382 0 0 1 9.19 15.81H4.381z"/>
</svg>
