<svg xmlns="http://www.w3.org/2000/svg" width="18" height="18" viewBox="0 0 18 18">
    <path fill="#636A80" fill-rule="nonzero" d="M17.84 17.082l-4.374-4.374a7.644 7.644 0 0 0 1.884-5.033C15.35 3.44 11.906 0 7.675 0 3.44 0 0 3.444 0 7.675c0 4.23 3.444 7.675 7.675 7.675 1.924 0 3.684-.71 5.033-1.884l4.374 4.374c.104.104.243.16.38.16a.54.54 0 0 0 .38-.918zM1.074 7.675A6.605 6.605 0 0 1 7.67 1.078a6.605 6.605 0 0 1 6.597 6.597c0 3.636-2.957 6.601-6.597 6.601-3.636 0-6.597-2.961-6.597-6.601z"/>
</svg>
