<svg xmlns="http://www.w3.org/2000/svg" width="24" height="24" viewBox="0 0 24 24">
    <path fill="#3A3E49" fill-rule="nonzero" d="M5.054 12l2.997 2.997a.476.476 0 1 1-.673.673l-3.81-3.81a.476.476 0 0 1 0-.673l3.81-3.81a.476.476 0 1 1 .673.674l-2.997 2.997h10.28a.476.476 0 1 1 0 .952H5.053zm5.517-7.619a.476.476 0 1 1 0-.952h7.62a2.381 2.381 0 0 1 2.38 2.38V18.19a2.381 2.381 0 0 1-2.38 2.381h-7.62a.476.476 0 1 1 0-.952h7.62c.788 0 1.428-.64 1.428-1.429V5.81c0-.79-.64-1.429-1.429-1.429h-7.619z"/>
</svg>
