<svg xmlns="http://www.w3.org/2000/svg" width="16" height="18" viewBox="0 0 16 18">
    <path fill="#3A3E49" fill-rule="nonzero" d="M4.826 9.753a.503.503 0 1 1 .578.823C5.34 10.617 3.857 11.653 2 12.13c-.868.31-.965 1.238-.991 2.087 0 .034-.004.064-.004.094-.007.335.019.853.078 1.151.608.343 2.99 1.532 6.574 1.532 3.6 0 5.967-1.185 6.57-1.528.06-.298.083-.816.079-1.152-.004-.03-.004-.06-.004-.093-.026-.85-.123-1.778-.991-2.087-1.856-.477-3.34-1.51-3.403-1.554a.503.503 0 1 1 .578-.823c.015.01 1.412.98 3.093 1.408l.037.011c1.618.552 1.666 2.277 1.689 3.015 0 .034.003.064.003.093v.012c.004.193.008 1.188-.179 1.684a.499.499 0 0 1-.193.235c-.112.07-2.792 1.781-7.275 1.781C3.18 17.996.5 16.29.388 16.215a.478.478 0 0 1-.194-.235c-.198-.5-.194-1.494-.19-1.688v-.011c.003-.03.003-.06.003-.093.023-.735.071-2.46 1.689-3.015l.037-.012c1.688-.428 3.078-1.397 3.093-1.408zM7.696 0C8.448.015 9.123.194 9.7.525c.775.444 1.714 1.394 1.807 3.38.026.265.265 3.038-1.17 4.655-.652.734-1.536 1.118-2.627 1.137h-.12C6.5 9.678 5.616 9.294 4.968 8.56 3.533 6.943 3.77 4.17 3.798 3.906 3.89 1.904 4.845.954 5.628.51 6.405.067 7.217 0 7.631 0zm-.023 1.01H7.63c-.813 0-2.71.287-2.833 2.959 0 .007-.003.019-.003.03-.004.022-.258 2.567.924 3.894.466.53 1.095.79 1.915.798h.038c.823-.008 1.45-.269 1.919-.798 1.185-1.334.924-3.868.92-3.894-.003-.008-.003-.019-.003-.03-.116-2.527-1.826-2.937-2.833-2.96z"/>
</svg>
