<?xml version="1.0" encoding="iso-8859-1"?>
<!-- Generator: Adobe Illustrator 19.0.0, SVG Export Plug-In . SVG Version: 6.00 Build 0)  -->
<svg version="1.1" id="Capa_1" xmlns="http://www.w3.org/2000/svg" xmlns:xlink="http://www.w3.org/1999/xlink" x="0px" y="0px"
	 viewBox="0 0 480.001 480.001" style="enable-background:new 0 0 480.001 480.001;" xml:space="preserve">
<g>
	<g>
		<g>
			<path d="M477.961,178.664L477.961,178.664c-1.517-1.695-3.685-2.664-5.96-2.664h-34.048L405.345,67.312
				C396.103,36.94,368.148,16.134,336.401,16h-25.872c-3.378-9.555-12.394-15.958-22.528-16h-96
				c-10.134,0.042-19.15,6.445-22.528,16h-25.872c-31.744,0.135-59.697,20.936-68.944,51.304L42.049,176H8.001
				C3.582,176,0,179.582,0,184c0,0.294,0.016,0.588,0.049,0.881l19.36,174.16C26.997,427.935,85.241,480.066,154.553,480h170.888
				c69.313,0.066,127.559-52.064,135.152-120.96l19.36-174.16C480.202,182.619,479.478,180.359,477.961,178.664z M192.001,16h96
				c4.418,0,8,3.582,8,8s-3.582,8-8,8h-96c-1.053,0-2.095-0.212-3.064-0.624c-0.989-0.429-1.883-1.049-2.632-1.824
				c-0.72-0.703-1.292-1.544-1.68-2.472c-0.411-0.975-0.623-2.022-0.624-3.08C184.001,19.582,187.582,16,192.001,16z M89.985,71.888
				c7.19-23.616,28.93-39.79,53.616-39.888h25.744c0.096,0.256,0.256,0.48,0.36,0.728c0.34,0.822,0.727,1.623,1.16,2.4
				c0.352,0.672,0.664,1.36,1.08,1.992c1.752,2.684,4.02,4.992,6.672,6.792c2.554,1.734,5.425,2.946,8.448,3.568h0.104
				c1.589,0.335,3.208,0.509,4.832,0.52h96c1.48-0.01,2.956-0.16,4.408-0.448c0.448-0.08,0.872-0.208,1.312-0.32
				c0.981-0.237,1.945-0.536,2.888-0.896c0.448-0.176,0.888-0.352,1.328-0.552c0.935-0.432,1.841-0.923,2.712-1.472
				c0.328-0.208,0.68-0.392,1-0.608c1.14-0.795,2.211-1.687,3.2-2.664c0.168-0.168,0.312-0.368,0.48-0.544
				c0.799-0.84,1.537-1.735,2.208-2.68c0.264-0.376,0.504-0.8,0.744-1.16c0.518-0.83,0.986-1.69,1.4-2.576
				c0.2-0.432,0.408-0.856,0.584-1.304c0.104-0.264,0.248-0.504,0.344-0.8h25.792c24.685,0.105,46.42,16.286,53.6,39.904
				L421.249,176H319.601v-0.072c-0.064-0.656-0.208-1.288-0.288-1.936c-0.24-1.936-0.504-3.872-0.88-5.76
				c-0.2-1-0.488-1.96-0.72-2.936c-0.368-1.512-0.712-3.032-1.16-4.504c-0.328-1.064-0.72-2.08-1.088-3.12
				c-0.472-1.352-0.936-2.712-1.48-4c-0.432-1.056-0.936-2.08-1.408-3.112c-0.584-1.248-1.152-2.496-1.792-3.704
				c-0.544-1.032-1.136-2.016-1.72-3.016c-0.68-1.16-1.352-2.32-2.088-3.44c-0.64-0.976-1.32-1.92-2-2.872
				c-0.8-1.072-1.552-2.144-2.4-3.2c-0.848-1.056-1.488-1.808-2.256-2.688c-0.864-1-1.744-1.976-2.656-2.928
				c-0.912-0.952-1.6-1.664-2.488-2.472s-1.936-1.8-2.936-2.664c-0.88-0.8-1.768-1.512-2.68-2.24c-1.04-0.8-2.112-1.6-3.2-2.4
				c-0.936-0.672-1.888-1.336-2.856-1.976c-1.128-0.728-2.288-1.416-3.456-2.096c-0.992-0.576-1.984-1.16-3.008-1.696
				c-1.216-0.64-2.464-1.216-3.72-1.792c-1.024-0.48-2.048-0.968-3.096-1.4c-1.32-0.544-2.68-1.008-4-1.48
				c-1.04-0.36-2.064-0.752-3.128-1.072c-1.44-0.432-2.928-0.8-4.4-1.136c-1.016-0.24-2.016-0.528-3.048-0.728
				c-1.664-0.336-3.368-0.552-5.072-0.8c-0.88-0.12-1.744-0.296-2.632-0.384c-2.608-0.256-5.256-0.4-7.928-0.4
				s-5.32,0.144-7.928,0.4c-0.888,0.088-1.752,0.264-2.632,0.384c-1.704,0.224-3.408,0.44-5.072,0.8
				c-1.032,0.2-2.032,0.488-3.048,0.728c-1.472,0.36-2.96,0.704-4.4,1.136c-1.064,0.32-2.088,0.712-3.128,1.072
				c-1.352,0.472-2.712,0.936-4,1.48c-1.048,0.432-2.072,0.92-3.096,1.4c-1.256,0.576-2.504,1.152-3.72,1.792
				c-1.024,0.536-2.016,1.12-3.008,1.696c-1.168,0.68-2.328,1.368-3.456,2.096c-0.968,0.64-1.92,1.304-2.856,1.976
				c-1.088,0.8-2.16,1.6-3.2,2.4c-0.912,0.728-1.8,1.472-2.68,2.24c-1,0.864-1.984,1.752-2.936,2.664s-1.672,1.6-2.488,2.472
				c-0.816,0.872-1.792,1.928-2.656,2.928c-0.8,0.88-1.52,1.768-2.256,2.688c-0.736,0.92-1.6,2.104-2.4,3.2
				c-0.68,0.952-1.36,1.896-2,2.872c-0.736,1.12-1.408,2.28-2.088,3.44c-0.584,1-1.176,1.984-1.72,3.016
				c-0.64,1.208-1.208,2.456-1.792,3.704c-0.472,1.032-0.976,2.056-1.408,3.112c-0.544,1.32-1.008,2.68-1.48,4
				c-0.368,1.04-0.8,2.056-1.088,3.12c-0.448,1.472-0.8,2.992-1.16,4.504c-0.232,0.976-0.52,1.936-0.72,2.936
				c-0.376,1.888-0.64,3.824-0.88,5.76c-0.08,0.648-0.224,1.28-0.288,1.936V176H58.753L89.985,71.888z M304.001,184
				c0,35.346-28.654,64-64,64c-35.346,0-64-28.654-64-64c0-35.346,28.654-64,64-64C275.33,120.04,303.961,148.671,304.001,184z
				 M444.689,357.272C437.993,418.064,386.599,464.062,325.441,464H154.553c-61.138,0.037-112.503-45.95-119.2-106.72L16.937,192
				h143.464v0.072c0.064,0.656,0.208,1.288,0.288,1.936c0.24,1.936,0.504,3.872,0.88,5.76c0.2,1,0.488,1.96,0.72,2.936
				c0.368,1.512,0.712,3.032,1.16,4.504c0.328,1.064,0.72,2.08,1.088,3.12c0.472,1.352,0.936,2.712,1.48,4
				c0.432,1.056,0.936,2.08,1.408,3.112c0.584,1.248,1.152,2.496,1.792,3.704c0.544,1.032,1.136,2.016,1.72,3.016
				c0.68,1.16,1.352,2.32,2.088,3.44c0.64,0.976,1.32,1.92,2,2.872c0.8,1.072,1.552,2.144,2.4,3.2
				c0.848,1.056,1.488,1.808,2.256,2.688c0.864,1,1.744,1.976,2.656,2.928c0.912,0.952,1.64,1.664,2.488,2.472
				s1.936,1.8,2.936,2.664c0.88,0.8,1.768,1.512,2.68,2.24c1.04,0.8,2.112,1.6,3.2,2.4c0.936,0.672,1.888,1.336,2.856,1.976
				c1.128,0.728,2.288,1.416,3.456,2.096c0.992,0.576,1.984,1.16,3.008,1.696c1.216,0.64,2.464,1.216,3.72,1.792
				c1.024,0.48,2.048,0.968,3.096,1.4c1.32,0.544,2.68,1.008,4,1.48c1.04,0.36,2.064,0.752,3.128,1.072
				c1.44,0.432,2.928,0.8,4.4,1.136c1.016,0.24,2.016,0.528,3.048,0.728c1.664,0.336,3.368,0.552,5.072,0.8
				c0.88,0.12,1.744,0.296,2.632,0.384c2.608,0.256,5.256,0.4,7.928,0.4s5.32-0.144,7.928-0.4c0.888-0.088,1.752-0.264,2.632-0.384
				c1.704-0.224,3.408-0.44,5.072-0.8c1.032-0.2,2.032-0.488,3.048-0.728c1.472-0.36,2.96-0.704,4.4-1.136
				c1.064-0.32,2.088-0.712,3.128-1.072c1.352-0.472,2.712-0.936,4-1.48c1.048-0.432,2.072-0.92,3.096-1.4
				c1.256-0.576,2.504-1.152,3.72-1.792c1.024-0.536,2.016-1.12,3.008-1.696c1.168-0.68,2.328-1.368,3.456-2.096
				c0.968-0.64,1.92-1.304,2.856-1.976c1.088-0.8,2.16-1.6,3.2-2.4c0.912-0.728,1.8-1.472,2.68-2.24
				c1-0.864,1.984-1.752,2.936-2.664c0.952-0.912,1.672-1.6,2.488-2.472c0.816-0.872,1.792-1.928,2.656-2.928
				c0.8-0.88,1.52-1.768,2.256-2.688c0.736-0.92,1.6-2.104,2.4-3.2c0.68-0.952,1.36-1.896,2-2.872c0.736-1.12,1.408-2.28,2.088-3.44
				c0.584-1,1.176-1.984,1.72-3.016c0.64-1.208,1.208-2.456,1.792-3.704c0.472-1.032,0.976-2.056,1.408-3.112
				c0.544-1.32,1.008-2.68,1.48-4c0.368-1.04,0.76-2.056,1.088-3.12c0.448-1.472,0.8-2.992,1.16-4.504
				c0.232-0.976,0.52-1.936,0.72-2.936c0.376-1.888,0.64-3.824,0.88-5.76c0.08-0.648,0.224-1.28,0.288-1.936V192h143.496
				L444.689,357.272z"/>
			<path d="M240.001,272c-13.255,0-24,10.745-24,24v128c0,13.255,10.745,24,24,24s24-10.745,24-24V296
				C264.001,282.746,253.255,272,240.001,272z M248.001,424c0,4.418-3.582,8-8,8s-8-3.582-8-8V296c0-4.418,3.582-8,8-8s8,3.582,8,8
				V424z"/>
			<path d="M144.001,272c-13.255,0-24,10.745-24,24v128c0,13.255,10.745,24,24,24s24-10.745,24-24V296
				C168.001,282.746,157.255,272,144.001,272z M152.001,424c0,4.418-3.582,8-8,8s-8-3.582-8-8V296c0-4.418,3.582-8,8-8s8,3.582,8,8
				V424z"/>
			<path d="M312.001,296v128c0,13.255,10.745,24,24,24s24-10.745,24-24V296c0-13.255-10.745-24-24-24S312.001,282.746,312.001,296z
				 M328.001,296c0-4.418,3.582-8,8-8s8,3.582,8,8v128c0,4.418-3.582,8-8,8s-8-3.582-8-8V296z"/>
		</g>
	</g>
</g>
<g>
</g>
<g>
</g>
<g>
</g>
<g>
</g>
<g>
</g>
<g>
</g>
<g>
</g>
<g>
</g>
<g>
</g>
<g>
</g>
<g>
</g>
<g>
</g>
<g>
</g>
<g>
</g>
<g>
</g>
</svg>
