<?xml version="1.0" encoding="UTF-8"?>
<svg width="30px" height="30px" viewBox="0 0 30 30" version="1.1" xmlns="http://www.w3.org/2000/svg" xmlns:xlink="http://www.w3.org/1999/xlink">
    <!-- Generator: sketchtool 57.1 (101010) - https://sketch.com -->
    <title>88F8086C-8612-4625-B3A0-48487FBFA59D</title>
    <desc>Created with sketchtool.</desc>
    <g id="Page-1" stroke="none" stroke-width="1" fill="none" fill-rule="evenodd">
        <g id="Works-Copy-69" transform="translate(-405.000000, -2311.000000)" fill="#B0B4B8" fill-rule="nonzero">
            <g id="Group-29" transform="translate(405.000000, 2001.000000)">
                <g id="Group-17" transform="translate(0.000000, 307.000000)">
                    <g id="Group-8-Copy-4">
                        <g id="check-mark" transform="translate(0.000000, 3.000000)">
                            <path d="M21.6307068,10.2404022 C22.0884704,10.6981659 22.0884704,11.4402008 21.6307068,11.8977356 L13.7690735,19.7595978 C13.3113098,20.2171325 12.5695038,20.2171325 12.1117401,19.7595978 L8.36929324,16.016922 C7.91152957,15.5593872 7.91152957,14.8173523 8.36929324,14.3598175 C8.82682799,13.9020538 9.56886293,13.9020538 10.0263977,14.3598175 L12.9402923,17.2737122 L19.9733734,10.2404022 C20.4311371,9.78286746 21.173172,9.78286746 21.6307068,10.2404022 L21.6307068,10.2404022 Z M30,15 C30,23.2912445 23.2901001,30 15,30 C6.70875551,30 0,23.2901001 0,15 C0,6.70875551 6.7098999,0 15,0 C23.2912445,0 30,6.7098999 30,15 Z M27.65625,15 C27.65625,8.0042267 21.9948578,2.34375 15,2.34375 C8.0042267,2.34375 2.34375,8.00514223 2.34375,15 C2.34375,21.9957733 8.00514223,27.65625 15,27.65625 C21.9957733,27.65625 27.65625,21.9948578 27.65625,15 Z" id="Shape"></path>
                        </g>
                    </g>
                </g>
            </g>
        </g>
    </g>
</svg>