<svg xmlns="http://www.w3.org/2000/svg" width="30" height="30" viewBox="0 0 30 30">
    <path fill="#FF5248" d="M21.63 10.24c.458.458.458 1.2 0 1.658l-7.86 7.862c-.459.457-1.2.457-1.658 0l-3.743-3.743c-.457-.458-.457-1.2 0-1.657.458-.458 1.2-.458 1.657 0l2.914 2.914 7.033-7.034c.458-.457 1.2-.457 1.658 0zM30 15c0 8.291-6.71 15-15 15-8.291 0-15-6.71-15-15C0 6.709 6.71 0 15 0c8.291 0 15 6.71 15 15zm-2.344 0c0-6.996-5.661-12.656-12.656-12.656C8.004 2.344 2.344 8.005 2.344 15c0 6.996 5.661 12.656 12.656 12.656 6.996 0 12.656-5.661 12.656-12.656z"/>
</svg>
