<svg xmlns="http://www.w3.org/2000/svg" width="60" height="60" viewBox="0 0 60 60">
    <path fill="#FF5248" d="M30 9.5c.552 0 1 .448 1 1v.702L48.848 38.5h-5.093c-3.174 0-5.756 2.582-5.756 5.756V54.5h-2v5h-12v-5h-2V44.256c0-3.174-2.582-5.756-5.755-5.756h-5.093L29 11.202V10.5c0-.552.448-1 1-1zm4 45h-8v3h8v-3zm2-5H24v3h12v-3zm-5-34.643v17.785c1.72.447 3 2 3 3.858 0 2.206-1.794 4-4 4s-4-1.794-4-4c0-1.858 1.28-3.411 3-3.858V14.857L14.849 36.5h1.396c4.276 0 7.755 3.48 7.755 7.756V47.5h12v-3.244c0-4.277 3.479-7.756 7.756-7.756h1.395L31 14.857zM30 34.5c-1.103 0-2 .897-2 2s.897 2 2 2 2-.897 2-2-.897-2-2-2zm25.85-6.994c.549-.036 1.03.371 1.072.922.027.354.027.714.04 1.072H60v8h-8v-8h2.963c-.012-.308-.012-.617-.035-.922-.042-.551.371-1.03.922-1.072zM4.221 26.179l.115.007c.548.07.935.57.866 1.118-.08.631-.137 1.275-.17 1.916-.005.1-.038.19-.07.28H8v8H0v-8h3.092c-.042-.119-.064-.247-.057-.382.035-.691.097-1.386.183-2.066.07-.549.58-.932 1.118-.866zM58 31.5h-4v4h4v-4zm-52 0H2v4h4v-4zm48.483-9.826c.525-.166 1.088.124 1.257.65.208.654.394 1.328.551 2.003.126.538-.208 1.076-.746 1.201-.077.018-.154.026-.229.026-.454 0-.866-.311-.973-.772-.147-.625-.318-1.248-.51-1.852-.167-.526.124-1.089.65-1.256zm-49.77-.656c.194-.518.773-.779 1.287-.585.518.194.779.771.585 1.287-.224.595-.427 1.209-.605 1.824-.127.438-.526.723-.96.723-.092 0-.185-.013-.278-.04-.531-.153-.837-.708-.683-1.238.192-.664.412-1.327.654-1.971zm47.096-4.707c.475-.284 1.088-.13 1.372.343.353.589.689 1.202.999 1.823.246.495.045 1.095-.45 1.341-.142.071-.295.105-.444.105-.367 0-.722-.203-.897-.555-.285-.574-.596-1.141-.923-1.685-.284-.473-.131-1.087.343-1.372zm-44.254-.819c.307-.459.927-.582 1.388-.274.458.308.581.929.273 1.388-.355.53-.695 1.08-1.008 1.636-.184.326-.523.509-.872.509-.166 0-.335-.042-.49-.129-.482-.271-.651-.881-.38-1.362.339-.601.705-1.196 1.089-1.768zm40.429-3.79c.396-.384 1.029-.376 1.414.022.48.494.946 1.014 1.388 1.546.352.425.294 1.055-.131 1.408-.187.154-.413.23-.638.23-.289 0-.574-.123-.771-.361-.408-.492-.84-.973-1.283-1.431-.385-.397-.375-1.03.021-1.414zm-36.401-.942c.404-.376 1.037-.355 1.414.049.377.404.355 1.037-.049 1.414-.467.435-.923.894-1.355 1.365-.197.214-.467.323-.737.323-.241 0-.484-.088-.676-.264-.407-.374-.434-1.007-.06-1.413.467-.508.959-1.004 1.463-1.474zM43.21 8.084c.299-.465.919-.599 1.382-.299.581.375 1.154.774 1.701 1.189.441.334.527.961.194 1.401-.196.259-.495.396-.798.396-.21 0-.422-.066-.603-.203-.508-.384-1.038-.755-1.577-1.102-.464-.299-.598-.918-.299-1.382zM16.585 7.069c.48-.275 1.091-.109 1.366.371.274.479.108 1.091-.371 1.365-.552.317-1.101.66-1.63 1.02-.172.117-.368.173-.562.173-.32 0-.635-.153-.828-.438-.311-.456-.193-1.078.264-1.389.572-.39 1.164-.76 1.761-1.102zM34 .5v3h18.143c.447-1.72 1.999-3 3.858-3 2.206 0 4 1.794 4 4s-1.794 4-4 4c-1.859 0-3.411-1.28-3.858-3H40.149c.264.107.535.201.793.316.505.223.733.814.509 1.319-.165.373-.532.595-.915.595-.135 0-.273-.027-.405-.086-.581-.257-1.181-.497-1.785-.711-.521-.185-.793-.756-.608-1.277.021-.059.063-.103.094-.156h-2.179c-.182.276-.49.454-.829.454-.061 0-.123-.005-.186-.017-.211-.04-.425-.07-.638-.104V8.5h-8V5.611c-.048-.027-.079-.076-.122-.111h-2.315c.037.461-.231.901-.692 1.038-.611.181-1.223.389-1.82.618-.118.046-.239.067-.358.067-.402 0-.782-.245-.934-.643-.149-.387-.04-.81.242-1.08H7.858c-.447 1.72-2 3-3.858 3-2.206 0-4-1.794-4-4s1.794-4 4-4c1.858 0 3.411 1.28 3.858 3H26v-3h8zm22 2c-1.103 0-2 .897-2 2s.897 2 2 2 2-.897 2-2-.897-2-2-2zm-24 0h-4v4h4v-4zm-28 0c-1.103 0-2 .897-2 2s.897 2 2 2 2-.897 2-2-.897-2-2-2z"/>
</svg>
