<svg xmlns="http://www.w3.org/2000/svg" width="21" height="16" viewBox="0 0 21 16">
    <path fill="#FF5248" fill-rule="nonzero" d="M18.398.033a2.562 2.562 0 0 1 2.558 2.566v10.819a2.565 2.565 0 0 1-2.563 2.562H2.563A2.565 2.565 0 0 1 0 13.418V2.595A2.565 2.565 0 0 1 2.563.033zm-.005 1.175H2.563c-.768 0-1.392.624-1.392 1.391v10.819c0 .767.624 1.392 1.392 1.392h15.835c.767 0 1.392-.625 1.392-1.392h-.005V2.599c0-.767-.624-1.391-1.392-1.391zM2.567 2.448a.585.585 0 0 1 .828-.048l5.611 5.021a.867.867 0 0 1 .095.083c0 .004.005.008.009.013l1.379 1.231 7.068-6.344a.588.588 0 0 1 .828.044.588.588 0 0 1-.044.828l-5.125 4.596 5.147 4.887a.588.588 0 0 1-.403 1.01.582.582 0 0 1-.403-.16l-5.212-4.952-1.462 1.31a.582.582 0 0 1-.78.004L8.681 8.7l-5.243 4.903a.587.587 0 0 1-.802-.858L7.801 7.91 2.615 3.276a.585.585 0 0 1-.048-.828z"/>
</svg>
