<svg xmlns="http://www.w3.org/2000/svg" xmlns:xlink="http://www.w3.org/1999/xlink" width="107" height="29" viewBox="0 0 107 29">
    <defs>
        <path id="a" d="M.09.245h11.315v20.774H.09z"/>
    </defs>
    <g fill="none" fill-rule="evenodd">
        <path fill="#FF5248" d="M10.006 24.573L.647 20.188C.26 20.005 0 19.527 0 18.988v-9.74C0 8.366.672 7.75 1.31 8.05l9.358 4.385c.388.182.648.662.648 1.199v9.74c0 .883-.673 1.498-1.31 1.2"/>
        <g transform="translate(13.063 7.728)">
            <mask id="b" fill="#fff">
                <use xlink:href="#a"/>
            </mask>
            <path fill="#FF5248" d="M1.4 20.943l9.358-4.385c.388-.182.647-.661.647-1.2V1.522c0-.883-.672-1.498-1.31-1.2L.738 4.706c-.389.182-.648.663-.648 1.2v13.837c0 .883.673 1.498 1.31 1.2" mask="url(#b)"/>
        </g>
        <path fill="#FF5248" d="M16.605 4.273a4.271 4.271 0 0 1-4.27 4.273 4.272 4.272 0 0 1-4.27-4.273A4.272 4.272 0 0 1 12.335 0a4.271 4.271 0 0 1 4.27 4.273"/>
        <path fill="#1F2949" d="M35.211 12.937c0 .414.232.74.696.98.463.24 1.02.46 1.669.66l1.995.615c.682.21 1.25.599 1.707 1.166.457.568.685 1.284.685 2.148 0 1.206-.464 2.152-1.393 2.838-.929.687-2.096 1.03-3.501 1.03-1.239 0-2.301-.26-3.188-.779a4.562 4.562 0 0 1-1.933-2.16l2.334-1.356c.435 1.206 1.364 1.808 2.787 1.808 1.422 0 2.133-.469 2.133-1.407 0-.402-.23-.728-.69-.98a9.08 9.08 0 0 0-1.664-.677l-1.996-.615a3.573 3.573 0 0 1-1.712-1.131c-.46-.544-.69-1.235-.69-2.073 0-1.155.44-2.085 1.318-2.788.878-.703 1.97-1.055 3.276-1.055 1.037 0 1.961.23 2.773.69a4.706 4.706 0 0 1 1.87 1.922l-2.284 1.282c-.435-.955-1.222-1.432-2.36-1.432-.518 0-.953.112-1.305.335-.351.223-.527.55-.527.98M54.54 22.048H51.3l-5.146-5.798v5.798h-2.71V4.463h2.71v10.602l4.87-5.577h3.313l-5.522 6.154zM55.618 22.048h2.711V9.488h-2.71v12.56zm2.573-14.96c-.343.344-.749.515-1.217.515-.469 0-.875-.171-1.218-.515a1.665 1.665 0 0 1-.514-1.218c0-.469.167-.875.502-1.218a1.651 1.651 0 0 1 1.23-.515c.485 0 .895.172 1.23.515.334.343.502.75.502 1.218 0 .47-.172.875-.515 1.218zM60.713 22.048h2.711V3.71h-2.71zM65.809 22.048h2.71V3.71h-2.71zM74.042 18.644c.753.762 1.698 1.143 2.836 1.143s2.084-.38 2.836-1.143c.754-.762 1.13-1.72 1.13-2.876s-.376-2.114-1.13-2.877c-.752-.762-1.698-1.143-2.836-1.143s-2.083.381-2.836 1.143c-.753.763-1.13 1.721-1.13 2.877 0 1.155.377 2.114 1.13 2.876zm6.802-9.157h2.711v12.56h-2.71V20.24c-1.022 1.424-2.486 2.135-4.394 2.135-1.723 0-3.196-.64-4.418-1.921-1.221-1.282-1.832-2.843-1.832-4.685 0-1.86.611-3.425 1.832-4.698 1.222-1.272 2.695-1.91 4.418-1.91 1.908 0 3.372.704 4.393 2.111V9.487zM92.968 12.1h-3.113v6.029c0 .519.117.892.352 1.118.234.226.58.351 1.041.377.46.025 1.033.02 1.72-.013v2.437c-2.075.25-3.565.07-4.468-.54-.904-.611-1.355-1.738-1.355-3.38V12.1h-2.31V9.487h2.31V6.774l2.71-.803v3.516h3.113V12.1zM96.281 14.713h7.38c-.184-1.022-.607-1.792-1.268-2.312-.661-.518-1.435-.778-2.322-.778-1.004 0-1.84.276-2.51.829-.67.552-1.096 1.306-1.28 2.26zm.025 2.21c.2.955.66 1.688 1.38 2.198.72.511 1.599.766 2.636.766 1.44 0 2.519-.518 3.238-1.557l2.235 1.306c-1.24 1.826-3.072 2.738-5.498 2.738-2.042 0-3.69-.623-4.945-1.871-1.255-1.248-1.882-2.826-1.882-4.735 0-1.876.618-3.446 1.857-4.71 1.238-1.265 2.828-1.897 4.77-1.897 1.84 0 3.35.645 4.53 1.934 1.18 1.29 1.77 2.856 1.77 4.698 0 .285-.034.662-.1 1.13h-9.99z"/>
    </g>
</svg>
