<svg xmlns="http://www.w3.org/2000/svg" xmlns:xlink="http://www.w3.org/1999/xlink" width="105" height="28" viewBox="0 0 105 28">
    <defs>
        <path id="a" d="M.086.237h10.939v20.082H.086z"/>
        <path id="c" d="M0 27.789h102.85V0H0z"/>
    </defs>
    <g fill="none" fill-rule="evenodd">
        <path fill="#FFF" d="M9.672 23.754l-9.046-4.24C.25 19.34 0 18.877 0 18.356V8.94c0-.853.65-1.448 1.266-1.16l9.046 4.24c.376.175.627.64.627 1.158v9.416c0 .853-.65 1.448-1.267 1.16"/>
        <g transform="translate(12.627 7.47)">
            <mask id="b" fill="#fff">
                <use xlink:href="#a"/>
            </mask>
            <path fill="#FFF" d="M1.353 20.245l9.046-4.239c.376-.176.626-.64.626-1.16V1.47c0-.853-.65-1.448-1.266-1.16L.713 4.55c-.376.175-.627.64-.627 1.159v13.376c0 .854.65 1.448 1.267 1.16" mask="url(#b)"/>
        </g>
        <path fill="#FFF" d="M16.052 4.13a4.13 4.13 0 0 1-4.128 4.131 4.13 4.13 0 0 1-4.127-4.13A4.13 4.13 0 0 1 11.924 0a4.13 4.13 0 0 1 4.128 4.13M34.037 12.506c0 .4.225.716.673.947.448.232.986.444 1.613.638l1.93.595a3.338 3.338 0 0 1 1.65 1.127c.44.549.662 1.24.662 2.076 0 1.166-.45 2.08-1.347 2.744-.898.664-2.026.995-3.385.995-1.197 0-2.224-.25-3.082-.752a4.41 4.41 0 0 1-1.868-2.089l2.257-1.31c.42 1.165 1.318 1.747 2.693 1.747s2.062-.453 2.062-1.36c0-.388-.222-.704-.667-.947a8.777 8.777 0 0 0-1.608-.654l-1.93-.595a3.454 3.454 0 0 1-1.654-1.094c-.446-.526-.668-1.193-.668-2.003 0-1.117.425-2.016 1.274-2.696.85-.68 1.905-1.02 3.167-1.02 1.003 0 1.896.223 2.681.668a4.549 4.549 0 0 1 1.808 1.858l-2.208 1.238c-.421-.922-1.181-1.384-2.281-1.384-.502 0-.922.108-1.262.324-.34.216-.51.531-.51.947M52.721 21.313h-3.13l-4.974-5.604v5.604h-2.62V4.315h2.62v10.248l4.707-5.392h3.203l-5.339 5.95z"/>
        <mask id="d" fill="#fff">
            <use xlink:href="#c"/>
        </mask>
        <path fill="#FFF" d="M53.764 21.313h2.62V9.171h-2.62v12.142zm2.488-14.46a1.608 1.608 0 0 1-1.177.497c-.453 0-.846-.166-1.177-.498a1.61 1.61 0 0 1-.497-1.178c0-.453.161-.845.485-1.177.323-.332.72-.498 1.189-.498.469 0 .865.166 1.189.498.323.332.485.724.485 1.177 0 .454-.166.847-.497 1.178zM58.69 21.313h2.62V3.586h-2.62zM63.615 21.313h2.62V3.586h-2.62zM71.574 18.022c.727.737 1.641 1.105 2.741 1.105s2.015-.368 2.742-1.105c.728-.736 1.092-1.663 1.092-2.78 0-1.117-.364-2.044-1.092-2.78-.727-.737-1.642-1.105-2.742-1.105s-2.014.368-2.741 1.105c-.728.736-1.092 1.663-1.092 2.78 0 1.117.364 2.044 1.092 2.78zm6.575-8.85h2.621v12.14h-2.62v-1.748c-.988 1.377-2.403 2.064-4.247 2.064-1.666 0-3.09-.619-4.27-1.857-1.181-1.239-1.772-2.748-1.772-4.529 0-1.797.59-3.31 1.771-4.541 1.181-1.23 2.605-1.845 4.27-1.845 1.845 0 3.26.68 4.247 2.04V9.17zM89.869 11.697H86.86v5.828c0 .501.113.862.34 1.08.226.219.561.34 1.007.364.444.025.998.02 1.662-.012v2.356c-2.006.243-3.446.068-4.319-.522-.874-.591-1.31-1.68-1.31-3.266v-5.828h-2.233V9.17h2.233V6.55l2.62-.777v3.4h3.009v2.525zM93.072 14.222h7.133c-.178-.987-.586-1.732-1.225-2.234-.64-.501-1.387-.753-2.244-.753-.971 0-1.78.267-2.427.802-.647.534-1.06 1.262-1.237 2.185zm.024 2.137c.194.923.639 1.631 1.334 2.125.696.494 1.545.74 2.548.74 1.391 0 2.435-.501 3.13-1.505l2.16 1.263c-1.197 1.764-2.969 2.646-5.314 2.646-1.974 0-3.567-.602-4.78-1.809-1.213-1.205-1.82-2.731-1.82-4.577 0-1.813.598-3.33 1.796-4.553 1.196-1.222 2.733-1.833 4.61-1.833 1.779 0 3.24.623 4.38 1.87 1.14 1.246 1.71 2.76 1.71 4.54 0 .276-.032.64-.097 1.093h-9.657z" mask="url(#d)"/>
    </g>
</svg>
