<svg xmlns="http://www.w3.org/2000/svg" width="20" height="20" viewBox="0 0 20 20">
    <path fill="#FF5248" fill-rule="nonzero" d="M3.825 1.156c.515 0 1.004.216 1.414.62.274.254.54.524.793.785.126.135.262.27.392.401l1.152 1.152c.886.886.886 2.034 0 2.92l-.354.359c-.312.316-.633.645-.98.962.258.57.613 1.13 1.14 1.797 1.089 1.338 2.224 2.371 3.473 3.165.122.076.266.147.417.223.106.055.216.11.325.17l1.334-1.33c.426-.426.924-.65 1.443-.65.523 0 1.017.228 1.426.654l2.316 2.325c.426.422.65.924.65 1.447 0 .52-.22 1.026-.637 1.46-.181.19-.367.372-.549.545-.265.257-.519.497-.738.763-.004.009-.013.013-.017.021-.641.697-1.46 1.047-2.434 1.047-.085 0-.178-.004-.266-.009-1.448-.092-2.743-.637-3.713-1.097A19.856 19.856 0 0 1 3.8 13.71C2.277 11.878 1.256 10.17.572 8.325c-.278-.75-.641-1.899-.54-3.13a3.087 3.087 0 0 1 .916-1.963l1.434-1.447.009-.008c.421-.405.92-.62 1.434-.62zm.009 1.14c-.216 0-.435.105-.642.3L1.753 4.033c-.35.35-.54.76-.582 1.253-.063.772.08 1.59.473 2.642.637 1.721 1.599 3.324 3.038 5.059a18.743 18.743 0 0 0 6.228 4.877c.873.418 2.038.907 3.29.988.064.004.131.004.195.004.658 0 1.16-.215 1.586-.671.262-.308.54-.582.815-.844.181-.177.35-.338.514-.515l.086-.096c.343-.414.314-.825-.09-1.224l-2.333-2.334c-.131-.143-.346-.308-.608-.308-.266 0-.493.173-.637.317l-1.443 1.443c-.072.071-.291.29-.641.29a.915.915 0 0 1-.418-.105c-.017-.008-.034-.02-.05-.03-.123-.075-.266-.147-.418-.223-.17-.084-.346-.173-.52-.282-1.354-.857-2.582-1.975-3.746-3.41-.646-.818-1.068-1.502-1.367-2.228L5.112 8.6c-.076-.24-.143-.595.22-.957.004-.009.012-.013.02-.021.368-.33.705-.667 1.06-1.03.122-.118.24-.24.363-.363.447-.447.447-.86 0-1.308L5.623 3.768c-.135-.14-.27-.274-.401-.41a21.303 21.303 0 0 0-.76-.754L4.45 2.59c-.135-.135-.35-.295-.616-.295zm7.076 1.33l.092.007a6.508 6.508 0 0 1 3.524 1.827 6.508 6.508 0 0 1 1.827 3.523.57.57 0 0 1-.469.659c-.034.004-.063.008-.097.008a.566.566 0 0 1-.561-.473 5.379 5.379 0 0 0-1.51-2.91 5.35 5.35 0 0 0-2.912-1.511.563.563 0 0 1-.46-.659.573.573 0 0 1 .658-.464zM11.067 0l.091.009a10.706 10.706 0 0 1 5.802 3.008A10.706 10.706 0 0 1 19.97 8.82a.559.559 0 0 1-.465.65c-.033.004-.063.008-.097.008a.566.566 0 0 1-.56-.473 9.559 9.559 0 0 0-2.689-5.185 9.587 9.587 0 0 0-5.185-2.688.572.572 0 0 1-.469-.658.567.567 0 0 1 .654-.464z"/>
</svg>
