<svg height="20" viewBox="0 0 18 20" width="18" xmlns="http://www.w3.org/2000/svg"><g fill="#3057d5"><path d="m8.05295316 13.8885947c.15071283.1221996.35437882.1507128.52953157.0651731.17515274-.0814664.28513238-.2566191.28513238-.4521385v-3.3971486c3.17718939.0122199 5.37270879.2403258 8.03258659 4.9368635.089613.1588595.2566191.2525458.4358452.2525458.0407332 0 .0855397-.0040733.1262729-.0162933.2199593-.0570264.3706721-.2566191.3706721-.4806517v-.395112c.0203666-3.3197556.0570265-10.1629328-8.96537679-10.48879838v-3.41344195c0-.19144603-.10997964-.3706721-.28513238-.45213849-.17515275-.0814664-.38289206-.05702648-.52953157.06517311l-7.86965377 6.49694501c-.11405295.09368636-.18329939.23625255-.18329939.38289206 0 .15071283.06517312.2892057.17922607.38289206zm-.18329939-12.3299389v2.84317719c0 .27291243.21995926.49694501.49287169.50101833 3.75152754.03665988 6.18329934 1.18126273 7.43788184 3.50712831.7902241 1.45824848.9816701 3.18126277 1.0264766 4.62729127-2.5621181-3.71894096-4.9694501-3.92668027-8.46028512-3.93075359-.13034623 0-.26069247.05295316-.35437882.14663951-.09368636.09368636-.14663951.21995927-.14663951.35437882v2.83910386l-6.58248473-5.45417514z" transform="matrix(-1 0 0 1 17.835038 0)"/><path d="m17.8370672 19.4649695v-2.1914461c0-.2769857-.2240326-.5010183-.5010183-.5010183-.2769858 0-.5010184.2240326-.5010184.5010183v1.694501h-15.73523417v-8.7087576c0-.27698574-.22403258-.50101833-.50101833-.50101833-.27698574 0-.50101833.22403259-.50101833.50101833v9.2016293c0 .2769858.22403259.5010184.50101833.5010184h16.7372709c.2769857 0 .5010183-.2240326.5010183-.496945z" transform="matrix(-1 0 0 1 17.934826 0)"/></g></svg>