<?xml version="1.0" encoding="utf-8"?>
<!-- Generator: Adobe Illustrator 24.0.1, SVG Export Plug-In . SVG Version: 6.00 Build 0)  -->
<svg version="1.1" id="Layer_1" xmlns="http://www.w3.org/2000/svg" xmlns:xlink="http://www.w3.org/1999/xlink" x="0px" y="0px"
	 viewBox="0 0 519 600.9" style="enable-background:new 0 0 519 600.9;" xml:space="preserve">
<style type="text/css">
	.st0{fill:#9DB1EA;}
	.st1{fill:#E4EBF4;}
	.st2{fill:#E4EBF4;stroke:#DAE2EF;stroke-miterlimit:10;}
	.st3{fill:#FFFFFF;stroke:#DAE2EF;stroke-miterlimit:10;}
	.st4{fill:#F0F5FC;}
	.st5{fill:#F0F5FC;stroke:#DAE2EF;stroke-miterlimit:10;}
	.st6{fill:#FFFFFF;}
	.st7{fill:#20C666;stroke:#3F404F;stroke-miterlimit:10;}
	.st8{fill:none;stroke:#3F404F;stroke-miterlimit:10;}
	.st9{fill:#142546;}
	.st10{fill:#4870FB;stroke:#142546;stroke-miterlimit:10;}
	.st11{fill:none;stroke:#FFFFFF;stroke-width:1.6;stroke-linecap:round;stroke-miterlimit:10;}
	.st12{fill:#20C666;stroke:#142546;stroke-miterlimit:10;}
	.st13{fill:#4870FB;}
	.st14{fill:#142546;stroke:#142546;stroke-miterlimit:10;}
	.st15{fill:#C0EFD5;stroke:#142546;stroke-miterlimit:10;}
	.st16{fill:#FFFFFF;stroke:#3F404F;stroke-linecap:round;stroke-miterlimit:10;}
	.st17{fill:#FFFFFF;stroke:#3F404F;stroke-miterlimit:10;}
	.st18{fill:#71CC96;}
</style>
<g>
	<ellipse class="st0" cx="249.2" cy="501.5" rx="205.8" ry="12.5"/>
	<g>
		<rect x="301.8" y="117" class="st1" width="173.7" height="105.6"/>
		<path class="st2" d="M467.3,100.5H310c-4.6,0-8.3,3.7-8.3,8.3v8.2h173.7v-8.2C475.5,104.2,471.8,100.5,467.3,100.5z"/>
		<circle class="st3" cx="310.6" cy="108.7" r="2.4"/>
		<circle class="st3" cx="320.1" cy="108.7" r="2.4"/>
		<circle class="st3" cx="329.5" cy="108.7" r="2.4"/>
		<rect x="286.3" y="130.2" class="st4" width="173.7" height="105.6"/>
		<path class="st5" d="M451.8,113.7H294.6c-4.6,0-8.3,3.7-8.3,8.3v8.2H460V122C460.1,117.4,456.4,113.7,451.8,113.7z"/>
		<circle class="st3" cx="295.2" cy="122" r="2.4"/>
		<circle class="st3" cx="304.6" cy="122" r="2.4"/>
		<circle class="st3" cx="314" cy="122" r="2.4"/>
		<rect x="270.9" y="143.4" class="st6" width="173.7" height="105.6"/>
		<path class="st3" d="M436.4,127H279.1c-4.6,0-8.3,3.7-8.3,8.3v8.2h173.7v-8.2C444.6,130.7,440.9,127,436.4,127z"/>
		<circle class="st3" cx="279.7" cy="135.2" r="2.4"/>
		<circle class="st3" cx="289.2" cy="135.2" r="2.4"/>
		<circle class="st3" cx="298.6" cy="135.2" r="2.4"/>
		<path class="st3" d="M326.7,164.6c4.9,0,4.9,2.1,9.8,2.1s4.9-2.1,9.8-2.1s4.9,2.1,9.8,2.1s4.9-2.1,9.8-2.1s4.9,2.1,9.8,2.1
			s4.9-2.1,9.8-2.1s4.9,2.1,9.8,2.1s4.9-2.1,9.8-2.1s4.9,2.1,9.8,2.1s4.9-2.1,9.8-2.1"/>
		<path class="st3" d="M326.7,179.1c4.9,0,4.9,2.1,9.8,2.1s4.9-2.1,9.8-2.1s4.9,2.1,9.8,2.1s4.9-2.1,9.8-2.1s4.9,2.1,9.8,2.1
			s4.9-2.1,9.8-2.1s4.9,2.1,9.8,2.1s4.9-2.1,9.8-2.1s4.9,2.1,9.8,2.1s4.9-2.1,9.8-2.1"/>
		<path class="st3" d="M326.7,193.7c4.9,0,4.9,2.1,9.8,2.1s4.9-2.1,9.8-2.1s4.9,2.1,9.8,2.1s4.9-2.1,9.8-2.1s4.9,2.1,9.8,2.1
			s4.9-2.1,9.8-2.1s4.9,2.1,9.8,2.1s4.9-2.1,9.8-2.1s4.9,2.1,9.8,2.1s4.9-2.1,9.8-2.1"/>
		<path class="st3" d="M326.7,208.2c4.9,0,4.9,2.1,9.8,2.1s4.9-2.1,9.8-2.1s4.9,2.1,9.8,2.1s4.9-2.1,9.8-2.1s4.9,2.1,9.8,2.1
			s4.9-2.1,9.8-2.1s4.9,2.1,9.8,2.1s4.9-2.1,9.8-2.1s4.9,2.1,9.8,2.1s4.9-2.1,9.8-2.1"/>
		<path class="st3" d="M326.7,222.8c4.9,0,4.9,2.1,9.8,2.1s4.9-2.1,9.8-2.1s4.9,2.1,9.8,2.1s4.9-2.1,9.8-2.1s4.9,2.1,9.8,2.1
			s4.9-2.1,9.8-2.1s4.9,2.1,9.8,2.1s4.9-2.1,9.8-2.1s4.9,2.1,9.8,2.1s4.9-2.1,9.8-2.1"/>
		<rect x="285.5" y="162.8" class="st3" width="28.3" height="63"/>
	</g>
	<g>
		<polygon class="st7" points="282.6,504.6 287.5,504.6 281.6,356 275.2,356 		"/>
		<g>
			<rect x="73.9" y="328.5" class="st7" width="273.6" height="27.5"/>
			<line class="st8" x1="145.8" y1="328.6" x2="145.8" y2="356"/>
			<polygon class="st7" points="142.4,504.6 147.2,504.6 154,356 147.5,356 			"/>
			<polygon class="st7" points="79.3,504.6 84.8,504.6 95.6,356 89.2,356 			"/>
			<polygon class="st7" points="336.5,504.6 341.4,504.6 331.6,356 325.1,356 			"/>
		</g>
		<rect x="150.5" y="333.3" class="st7" width="93.8" height="17.9"/>
		<rect x="249.2" y="333.3" class="st7" width="93.8" height="17.9"/>
	</g>
	<path class="st9" d="M245.4,311.3H101.6c-1.5,0-2.7-1.2-2.7-2.7v-99.1c0-1.5,1.2-2.7,2.7-2.7h143.8c1.5,0,2.7,1.2,2.7,2.7v99.1
		C248.1,310.1,246.9,311.3,245.4,311.3z"/>
	<path class="st6" d="M243.9,308.4H107c-0.8,0-1.5-0.7-1.5-1.5v-95.8c0-0.8,0.7-1.5,1.5-1.5h136.9c0.8,0,1.5,0.7,1.5,1.5v95.8
		C245.4,307.7,244.8,308.4,243.9,308.4z"/>
	<rect x="161.8" y="311.3" class="st9" width="24.8" height="11.5"/>
	<path class="st9" d="M201.3,328.6h-54.1v-0.5c0-2.9,2.4-5.3,5.3-5.3H196c2.9,0,5.3,2.4,5.3,5.3V328.6z"/>
	<polyline class="st10" points="209.1,328.6 212.6,321 292.6,321 318.4,328.6 209.1,328.6 	"/>
	<line class="st11" x1="214" y1="322.9" x2="227.4" y2="326.7"/>
	<line class="st11" x1="242.8" y1="326.4" x2="292.3" y2="326.4"/>
	<path class="st12" d="M330.7,401.2L330.7,401.2c5.4,0,9.7-4,10.5-9.9l15.5-108.5c0.8-5.9,5.3-10.3,10.6-10.3h57.5
		c6.5,0,11.5,6.6,10.6,14c-3.1,25.6-9.5,79.7-12.5,103.5c-0.8,6.7-5.6,11.3-11.7,11.3h-21.9c-7.9,0-14.2,5.8-15.5,14.5l0,0
		c-0.8,4.8-4.3,8.1-8.7,8.1h-75.4c-4.4,0-8.1-5-7.2-9.8l0,0c1.5-7.7,7.2-12.8,14.4-12.8h97.5"/>
	<circle class="st13" cx="314.4" cy="498.4" r="6.1"/>
	<circle class="st13" cx="365.4" cy="498.4" r="6.1"/>
	<circle class="st13" cx="402.7" cy="498.4" r="6.1"/>
	<polygon class="st13" points="362.2,472 362.2,423.8 356.4,423.8 356.4,472 311.5,480 311.5,488.9 317.3,488.9 317.3,484.9 
		358.3,477.5 363.4,482.9 363.4,488.9 369.2,488.9 369.2,480.6 367.6,478.9 399.8,484.8 399.8,488.9 405.6,488.9 405.6,480 	"/>
	<polyline class="st14" points="249.9,395.7 205.9,444 221.8,457.7 266.1,413.9 	"/>
	<path class="st15" d="M273.1,372.2L273.1,372.2c-12,0-22.3,8.3-24.8,20l-16,76.6h24.2l19.8-67.7h96.9"/>
	<path class="st14" d="M401.4,378.9L401.4,378.9c-1.8,12.7-12.6,22.2-25.5,22.2h-5.1l-97.7-28.9l0,0c5.4-10.8,17.4-16.7,29.2-14.2
		L401.4,378.9z"/>
	<path class="st13" d="M229.2,483.7c-1,3.4-3.9,6.2-7.3,7.2l-23.1,6.1c-5,1.4-9.1,3.4-12.3,7.6l0,0h57.7l2.7-21L229.2,483.7z"/>
	<polygon class="st16" points="246.9,483.6 251.5,468.8 232.3,468.8 229.2,483.7 	"/>
	<polygon class="st16" points="205.9,444 197.7,452.6 210.6,459.2 218,454.4 	"/>
	<path class="st13" d="M197.7,452.6l-3.1,2.6c-1.7,1.5-3.9,2.4-6.2,2.5l-17.4,1c-5.5,0.4-10.7,3-14.3,7.1l0,0l44.4,7.7l9.4-14.4
		L197.7,452.6z"/>
	<path class="st17" d="M340.8,287.5l-17.4,46c0,0-32.7-8.5-42.1-10.4s-9.4-7-16-7.8c-6.6-0.7-16.1,3.2-16.1,5.8s7.6-1.1,9.4-1.4
		s7.1,2.1,5.1,3.3c-2,1.2-8.1-1.9-8.2,1.9s12.1,1.6,15.6,1.6s46.7,25.8,55.2,26c8.5,0.1,20.4-35.4,21.2-35.4"/>
	<path class="st13" d="M396.8,306.8c-1.2,2.7-3.5,5.5-8.1,4c-8.2-2.7-15.6-12.4-10.6-22.1c2.5-5,7-5.6,10.7-4.9
		c-2.6-3-7-5.1-12.3-6.3c-4.2,5.1-11.7,11.6-22.5,13.2c-10.6,1.5-11-2.8-9.5-7.7c-2.7,1.7-6.1,4.8-9,7.9
		c-10.4,11.6,3.5,20.7,5.9,25.6s7,15.5,2.7,50.4l57.2,12.1C405.6,358.9,402.1,328.8,396.8,306.8z"/>
	<g>
		<path class="st18" d="M147.2,262.5c1.4-3,2.8-6,4.6-8.7c0.6-0.8,1.2-1,2-0.6c6.8,2.8,13.7,5.4,20.5,8.3c1,0.4,1.6,0.4,2.6,0
			c6.8-2.8,13.5-5.4,20.3-8.3c1.2-0.4,1.8-0.4,2.4,0.6c2.4,3.6,4.2,7.5,5,11.7c0.4,2.4-0.2,3-2.6,2.8c-10.5-0.6-18.5,3.4-24.6,11.9
			c-1.4,2-2.4,1.8-3.8,0c-5.8-8.3-13.9-12.3-24-11.9c-2.4,0-2.4,0.2-2.4,2.4c0.2,6.6,0.4,13.1,0.8,19.7c0,1.6-0.4,2.2-2.2,2.2
			c-2,0-3.8,0-5.8,0c-1.8,0-2.4-0.6-2.4-2.4c0.4-10.7,0.8-21.6,1.4-32.2c0.2-3.6,0.2-7.3,0.4-10.9c0-1-0.2-1.6-1.4-2
			c-1-0.2-1.8-0.8-2.8-1c-0.8-0.2-1.2-0.6-1-1.4c0-0.8,0.4-1.2,1-1.6c13.1-5.2,26.2-10.5,39.3-15.7c0.8-0.4,1.4-0.2,2,0
			c12.9,5.2,26,10.5,38.9,15.5c0.6,0.2,1.2,0.4,1.2,1.4s-0.4,1.4-1.2,1.6c-12.9,5.2-26,10.3-38.9,15.5c-1,0.4-1.8,0.2-2.6-0.2
			c-8.7-3.4-17.3-6.8-25.8-10.3c-2-0.8-2-0.8-1.8,1.4C147,254.9,147,258.7,147.2,262.5z M173,240.8c2,1.4,4.2,1.4,5.6,0
			C176.8,239.8,175,239.8,173,240.8z"/>
	</g>
	<path class="st16" d="M354,290.6c10.8-1.5,18.3-8.1,22.5-13.2c-9.7-2.1-22.3,0.5-32,5.5C343.1,287.8,343.5,292.1,354,290.6z"/>
	<path class="st16" d="M349.4,282.6l1.7-15.2c0,0-2.5,1.2-4.9-0.3c-4.9-3.2-9.2-20.1-10.5-31.6s25.6-11.1,25.6-11.1l3.2,33.2
		l3.1,19.9"/>
	<path class="st9" d="M361.6,217c-28.1-1.3-25.9,16.3-25.9,16.3c16.9-2.9,19.2,10.1,19.2,10.1s0.1-0.4,0.7-2
		c0.9-2.3,3.7-2.8,4.9-0.7c3,5.1-1.3,9.1-1.3,9.1l5.3,7.7c0,0,19-7.9,7.5-30.6c0,0,7.2,0.7,12.2-4.4c5.2-5.3,1.4-12.1,1.4-12.1
		s5.7,1.1,7.3-2.8c1.6-3.9-0.8-6.4-3.5-7.2s-6.3,1.2-6.6,4.4c-3.7-1.7-9.3-2.5-13.9-0.1C360.2,209.2,361.6,217,361.6,217z"/>
	<path class="st16" d="M351,267.3c9-4.9,6.8-13.1,6.8-13.1"/>
	<path class="st17" d="M378.1,288.7c-4.9,9.7,2.4,19.4,10.6,22.1c4.6,1.5,6.9-1.2,8.1-4c-2-8.2-4.2-15.4-6.3-20.4
		c-0.4-1-1-1.9-1.7-2.7C385.1,283.1,380.6,283.7,378.1,288.7z"/>
	<path class="st17" d="M388.8,283.7c23.5,21.1,20.9,73.7,19.1,76.4c-1.8,2.7-43.4,11-43.4,11l-17.1-3.6l47.6-17.8
		c0,0-0.4-22.3-12-45.2"/>
</g>
</svg>
