<?xml version="1.0" encoding="utf-8"?>
<!-- Generator: Adobe Illustrator 24.0.1, SVG Export Plug-In . SVG Version: 6.00 Build 0)  -->
<svg version="1.1" id="Layer_1" xmlns="http://www.w3.org/2000/svg" xmlns:xlink="http://www.w3.org/1999/xlink" x="0px" y="0px"
	 viewBox="0 0 519 600" style="enable-background:new 0 0 519 600;" xml:space="preserve">
<style type="text/css">
	.st0{opacity:0.4;fill:#9DB1EA;}
	.st1{fill:#4870FB;}
	.st2{fill:#E4EBF4;}
	.st3{fill:#E4EBF4;stroke:#DAE2EF;stroke-miterlimit:10;}
	.st4{fill:none;stroke:#DAE2EF;stroke-miterlimit:10;}
	.st5{fill:#F0F5FC;}
	.st6{fill:#F0F5FC;stroke:#DAE2EF;stroke-miterlimit:10;}
	.st7{fill:#FFFFFF;}
	.st8{fill:#FFFFFF;stroke:#DAE2EF;stroke-miterlimit:10;}
	.st9{fill:#4870FB;stroke:#142546;stroke-miterlimit:10;}
	.st10{fill:#20C666;stroke:#142546;stroke-miterlimit:10;}
	.st11{fill:#142546;stroke:#142546;stroke-miterlimit:10;}
	.st12{fill:#142546;}
	.st13{fill:#FFFFFF;stroke:#3F404F;stroke-miterlimit:10;}
	.st14{fill:#C0EFD5;stroke:#142546;stroke-miterlimit:10;}
	.st15{fill:#4870FB;stroke:#FFFFFF;stroke-miterlimit:10;}
	.st16{fill:#20C666;stroke:#3F404F;stroke-miterlimit:10;}
	.st17{fill:#C0EFD5;}
	.st18{fill:none;stroke:#3F404F;stroke-miterlimit:10;}
	.st19{fill:#C0EFD5;stroke:#3F404F;stroke-miterlimit:10;}
	.st20{fill:none;stroke:#142546;stroke-miterlimit:10;}
	.st21{fill:#FFFFFF;stroke:#3F404F;stroke-linecap:round;stroke-miterlimit:10;}
</style>
<ellipse class="st0" cx="259.5" cy="498.9" rx="196.8" ry="15.1"/>
<polygon class="st1" points="288.4,475.4 255.8,491.8 310,491.8 305.8,475.3 "/>
<g>
	<rect x="170.6" y="104.1" class="st2" width="201.8" height="203.4"/>
	<rect x="170.6" y="86.9" class="st3" width="201.8" height="17.3"/>
	<g>
		<line class="st4" x1="358.6" y1="90.5" x2="368.6" y2="100.5"/>
		<line class="st4" x1="358.6" y1="100.5" x2="368.6" y2="90.5"/>
	</g>
</g>
<g>
	<rect x="151.2" y="111.5" class="st5" width="201.8" height="203.4"/>
	<rect x="151.2" y="94.2" class="st6" width="201.8" height="17.3"/>
	<g>
		<line class="st4" x1="339.2" y1="97.8" x2="349.1" y2="107.8"/>
		<line class="st4" x1="339.2" y1="107.8" x2="349.1" y2="97.8"/>
	</g>
</g>
<g>
	<rect x="131.7" y="118.8" class="st7" width="201.8" height="203.4"/>
	<rect x="131.7" y="101.5" class="st8" width="201.8" height="17.3"/>
	<g>
		<line class="st4" x1="319.8" y1="105.2" x2="329.7" y2="115.1"/>
		<line class="st4" x1="319.8" y1="115.1" x2="329.7" y2="105.2"/>
	</g>
</g>
<g>
	<path class="st8" d="M239,224.5c3.8,0,3.8,1.6,7.6,1.6s3.8-1.6,7.6-1.6c3.8,0,3.8,1.6,7.6,1.6c3.8,0,3.8-1.6,7.6-1.6
		c3.8,0,3.8,1.6,7.6,1.6c3.8,0,3.8-1.6,7.6-1.6c3.8,0,3.8,1.6,7.6,1.6c3.8,0,3.8-1.6,7.6-1.6c3.8,0,3.8,1.6,7.6,1.6s3.8-1.6,7.6-1.6
		"/>
	<path class="st8" d="M239,236.9c3.8,0,3.8,1.6,7.6,1.6s3.8-1.6,7.6-1.6c3.8,0,3.8,1.6,7.6,1.6c3.8,0,3.8-1.6,7.6-1.6
		c3.8,0,3.8,1.6,7.6,1.6c3.8,0,3.8-1.6,7.6-1.6c3.8,0,3.8,1.6,7.6,1.6c3.8,0,3.8-1.6,7.6-1.6c3.8,0,3.8,1.6,7.6,1.6s3.8-1.6,7.6-1.6
		"/>
	<path class="st8" d="M239,249.3c3.8,0,3.8,1.6,7.6,1.6s3.8-1.6,7.6-1.6c3.8,0,3.8,1.6,7.6,1.6c3.8,0,3.8-1.6,7.6-1.6
		c3.8,0,3.8,1.6,7.6,1.6c3.8,0,3.8-1.6,7.6-1.6c3.8,0,3.8,1.6,7.6,1.6c3.8,0,3.8-1.6,7.6-1.6c3.8,0,3.8,1.6,7.6,1.6s3.8-1.6,7.6-1.6
		"/>
	<path class="st8" d="M239,261.8c3.8,0,3.8,1.6,7.6,1.6s3.8-1.6,7.6-1.6c3.8,0,3.8,1.6,7.6,1.6c3.8,0,3.8-1.6,7.6-1.6
		c3.8,0,3.8,1.6,7.6,1.6c3.8,0,3.8-1.6,7.6-1.6c3.8,0,3.8,1.6,7.6,1.6c3.8,0,3.8-1.6,7.6-1.6c3.8,0,3.8,1.6,7.6,1.6s3.8-1.6,7.6-1.6
		"/>
	<path class="st8" d="M239,274.2c3.8,0,3.8,1.6,7.6,1.6s3.8-1.6,7.6-1.6c3.8,0,3.8,1.6,7.6,1.6c3.8,0,3.8-1.6,7.6-1.6
		c3.8,0,3.8,1.6,7.6,1.6c3.8,0,3.8-1.6,7.6-1.6c3.8,0,3.8,1.6,7.6,1.6c3.8,0,3.8-1.6,7.6-1.6c3.8,0,3.8,1.6,7.6,1.6s3.8-1.6,7.6-1.6
		"/>
	<path class="st8" d="M239,286.6c3.8,0,3.8,1.6,7.6,1.6s3.8-1.6,7.6-1.6c3.8,0,3.8,1.6,7.6,1.6c3.8,0,3.8-1.6,7.6-1.6
		c3.8,0,3.8,1.6,7.6,1.6c3.8,0,3.8-1.6,7.6-1.6c3.8,0,3.8,1.6,7.6,1.6c3.8,0,3.8-1.6,7.6-1.6c3.8,0,3.8,1.6,7.6,1.6s3.8-1.6,7.6-1.6
		"/>
	<path class="st8" d="M239,299c3.8,0,3.8,1.6,7.6,1.6s3.8-1.6,7.6-1.6c3.8,0,3.8,1.6,7.6,1.6c3.8,0,3.8-1.6,7.6-1.6
		c3.8,0,3.8,1.6,7.6,1.6c3.8,0,3.8-1.6,7.6-1.6c3.8,0,3.8,1.6,7.6,1.6c3.8,0,3.8-1.6,7.6-1.6c3.8,0,3.8,1.6,7.6,1.6s3.8-1.6,7.6-1.6
		"/>
	<path class="st8" d="M239,137.6c3.8,0,3.8,1.6,7.6,1.6s3.8-1.6,7.6-1.6c3.8,0,3.8,1.6,7.6,1.6c3.8,0,3.8-1.6,7.6-1.6
		c3.8,0,3.8,1.6,7.6,1.6c3.8,0,3.8-1.6,7.6-1.6c3.8,0,3.8,1.6,7.6,1.6c3.8,0,3.8-1.6,7.6-1.6c3.8,0,3.8,1.6,7.6,1.6s3.8-1.6,7.6-1.6
		"/>
	<path class="st8" d="M239,150c3.8,0,3.8,1.6,7.6,1.6s3.8-1.6,7.6-1.6c3.8,0,3.8,1.6,7.6,1.6c3.8,0,3.8-1.6,7.6-1.6
		c3.8,0,3.8,1.6,7.6,1.6c3.8,0,3.8-1.6,7.6-1.6c3.8,0,3.8,1.6,7.6,1.6c3.8,0,3.8-1.6,7.6-1.6c3.8,0,3.8,1.6,7.6,1.6s3.8-1.6,7.6-1.6
		"/>
	<path class="st8" d="M239,162.4c3.8,0,3.8,1.6,7.6,1.6s3.8-1.6,7.6-1.6c3.8,0,3.8,1.6,7.6,1.6c3.8,0,3.8-1.6,7.6-1.6
		c3.8,0,3.8,1.6,7.6,1.6c3.8,0,3.8-1.6,7.6-1.6c3.8,0,3.8,1.6,7.6,1.6c3.8,0,3.8-1.6,7.6-1.6c3.8,0,3.8,1.6,7.6,1.6s3.8-1.6,7.6-1.6
		"/>
	<path class="st8" d="M239,174.8c3.8,0,3.8,1.6,7.6,1.6s3.8-1.6,7.6-1.6c3.8,0,3.8,1.6,7.6,1.6c3.8,0,3.8-1.6,7.6-1.6
		c3.8,0,3.8,1.6,7.6,1.6c3.8,0,3.8-1.6,7.6-1.6c3.8,0,3.8,1.6,7.6,1.6c3.8,0,3.8-1.6,7.6-1.6c3.8,0,3.8,1.6,7.6,1.6s3.8-1.6,7.6-1.6
		"/>
	<path class="st8" d="M239,187.3c3.8,0,3.8,1.6,7.6,1.6s3.8-1.6,7.6-1.6c3.8,0,3.8,1.6,7.6,1.6c3.8,0,3.8-1.6,7.6-1.6
		c3.8,0,3.8,1.6,7.6,1.6c3.8,0,3.8-1.6,7.6-1.6c3.8,0,3.8,1.6,7.6,1.6c3.8,0,3.8-1.6,7.6-1.6c3.8,0,3.8,1.6,7.6,1.6s3.8-1.6,7.6-1.6
		"/>
	<path class="st8" d="M239,199.7c3.8,0,3.8,1.6,7.6,1.6s3.8-1.6,7.6-1.6c3.8,0,3.8,1.6,7.6,1.6c3.8,0,3.8-1.6,7.6-1.6
		c3.8,0,3.8,1.6,7.6,1.6c3.8,0,3.8-1.6,7.6-1.6c3.8,0,3.8,1.6,7.6,1.6c3.8,0,3.8-1.6,7.6-1.6c3.8,0,3.8,1.6,7.6,1.6s3.8-1.6,7.6-1.6
		"/>
	<path class="st8" d="M239,212.1c3.8,0,3.8,1.6,7.6,1.6s3.8-1.6,7.6-1.6c3.8,0,3.8,1.6,7.6,1.6c3.8,0,3.8-1.6,7.6-1.6
		c3.8,0,3.8,1.6,7.6,1.6c3.8,0,3.8-1.6,7.6-1.6c3.8,0,3.8,1.6,7.6,1.6c3.8,0,3.8-1.6,7.6-1.6c3.8,0,3.8,1.6,7.6,1.6s3.8-1.6,7.6-1.6
		"/>
	<path class="st8" d="M150.7,224.5c3.8,0,3.8,1.6,7.6,1.6s3.8-1.6,7.6-1.6s3.8,1.6,7.6,1.6s3.8-1.6,7.6-1.6s3.8,1.6,7.6,1.6
		s3.8-1.6,7.6-1.6s3.8,1.6,7.6,1.6s3.8-1.6,7.6-1.6s3.8,1.6,7.6,1.6s3.8-1.6,7.6-1.6"/>
	<path class="st8" d="M150.7,236.9c3.8,0,3.8,1.6,7.6,1.6s3.8-1.6,7.6-1.6s3.8,1.6,7.6,1.6s3.8-1.6,7.6-1.6s3.8,1.6,7.6,1.6
		s3.8-1.6,7.6-1.6s3.8,1.6,7.6,1.6s3.8-1.6,7.6-1.6s3.8,1.6,7.6,1.6s3.8-1.6,7.6-1.6"/>
	<path class="st8" d="M150.7,249.3c3.8,0,3.8,1.6,7.6,1.6s3.8-1.6,7.6-1.6s3.8,1.6,7.6,1.6s3.8-1.6,7.6-1.6s3.8,1.6,7.6,1.6
		s3.8-1.6,7.6-1.6s3.8,1.6,7.6,1.6s3.8-1.6,7.6-1.6s3.8,1.6,7.6,1.6s3.8-1.6,7.6-1.6"/>
	<path class="st8" d="M150.7,261.8c3.8,0,3.8,1.6,7.6,1.6s3.8-1.6,7.6-1.6s3.8,1.6,7.6,1.6s3.8-1.6,7.6-1.6s3.8,1.6,7.6,1.6
		s3.8-1.6,7.6-1.6s3.8,1.6,7.6,1.6s3.8-1.6,7.6-1.6s3.8,1.6,7.6,1.6s3.8-1.6,7.6-1.6"/>
	<path class="st8" d="M150.7,274.2c3.8,0,3.8,1.6,7.6,1.6s3.8-1.6,7.6-1.6s3.8,1.6,7.6,1.6s3.8-1.6,7.6-1.6s3.8,1.6,7.6,1.6
		s3.8-1.6,7.6-1.6s3.8,1.6,7.6,1.6s3.8-1.6,7.6-1.6s3.8,1.6,7.6,1.6s3.8-1.6,7.6-1.6"/>
	<path class="st8" d="M150.7,286.6c3.8,0,3.8,1.6,7.6,1.6s3.8-1.6,7.6-1.6s3.8,1.6,7.6,1.6s3.8-1.6,7.6-1.6s3.8,1.6,7.6,1.6
		s3.8-1.6,7.6-1.6s3.8,1.6,7.6,1.6s3.8-1.6,7.6-1.6s3.8,1.6,7.6,1.6s3.8-1.6,7.6-1.6"/>
	<path class="st8" d="M150.7,299c3.8,0,3.8,1.6,7.6,1.6s3.8-1.6,7.6-1.6s3.8,1.6,7.6,1.6s3.8-1.6,7.6-1.6s3.8,1.6,7.6,1.6
		s3.8-1.6,7.6-1.6s3.8,1.6,7.6,1.6s3.8-1.6,7.6-1.6s3.8,1.6,7.6,1.6s3.8-1.6,7.6-1.6"/>
	<path class="st8" d="M150.7,137.6c3.8,0,3.8,1.6,7.6,1.6s3.8-1.6,7.6-1.6s3.8,1.6,7.6,1.6s3.8-1.6,7.6-1.6s3.8,1.6,7.6,1.6
		s3.8-1.6,7.6-1.6s3.8,1.6,7.6,1.6s3.8-1.6,7.6-1.6s3.8,1.6,7.6,1.6s3.8-1.6,7.6-1.6"/>
	<path class="st8" d="M150.7,150c3.8,0,3.8,1.6,7.6,1.6s3.8-1.6,7.6-1.6s3.8,1.6,7.6,1.6s3.8-1.6,7.6-1.6s3.8,1.6,7.6,1.6
		s3.8-1.6,7.6-1.6s3.8,1.6,7.6,1.6s3.8-1.6,7.6-1.6s3.8,1.6,7.6,1.6s3.8-1.6,7.6-1.6"/>
	<path class="st8" d="M150.7,162.4c3.8,0,3.8,1.6,7.6,1.6s3.8-1.6,7.6-1.6s3.8,1.6,7.6,1.6s3.8-1.6,7.6-1.6s3.8,1.6,7.6,1.6
		s3.8-1.6,7.6-1.6s3.8,1.6,7.6,1.6s3.8-1.6,7.6-1.6s3.8,1.6,7.6,1.6s3.8-1.6,7.6-1.6"/>
	<path class="st8" d="M150.7,174.8c3.8,0,3.8,1.6,7.6,1.6s3.8-1.6,7.6-1.6s3.8,1.6,7.6,1.6s3.8-1.6,7.6-1.6s3.8,1.6,7.6,1.6
		s3.8-1.6,7.6-1.6s3.8,1.6,7.6,1.6s3.8-1.6,7.6-1.6s3.8,1.6,7.6,1.6s3.8-1.6,7.6-1.6"/>
	<path class="st8" d="M150.7,187.3c3.8,0,3.8,1.6,7.6,1.6s3.8-1.6,7.6-1.6s3.8,1.6,7.6,1.6s3.8-1.6,7.6-1.6s3.8,1.6,7.6,1.6
		s3.8-1.6,7.6-1.6s3.8,1.6,7.6,1.6s3.8-1.6,7.6-1.6s3.8,1.6,7.6,1.6s3.8-1.6,7.6-1.6"/>
	<path class="st8" d="M150.7,199.7c3.8,0,3.8,1.6,7.6,1.6s3.8-1.6,7.6-1.6s3.8,1.6,7.6,1.6s3.8-1.6,7.6-1.6s3.8,1.6,7.6,1.6
		s3.8-1.6,7.6-1.6s3.8,1.6,7.6,1.6s3.8-1.6,7.6-1.6s3.8,1.6,7.6,1.6s3.8-1.6,7.6-1.6"/>
	<path class="st8" d="M150.7,212.1c3.8,0,3.8,1.6,7.6,1.6s3.8-1.6,7.6-1.6s3.8,1.6,7.6,1.6s3.8-1.6,7.6-1.6s3.8,1.6,7.6,1.6
		s3.8-1.6,7.6-1.6s3.8,1.6,7.6,1.6s3.8-1.6,7.6-1.6s3.8,1.6,7.6,1.6s3.8-1.6,7.6-1.6"/>
</g>
<g>
	<polygon class="st9" points="313.2,390.5 347.6,491.8 352.4,491.8 323.8,390.5 	"/>
	<polygon class="st9" points="336.3,491.8 367.3,390.5 357,390.5 331.9,491.8 	"/>
	<polygon class="st9" points="240.7,491.8 271.7,390.5 261.5,390.5 236.3,491.8 	"/>
	<polygon class="st9" points="387.5,390.5 422,491.8 426.7,491.8 398.1,390.5 	"/>
	<path class="st10" d="M302.9,390.5L302.9,390.5c5.7,0,10.7-3.6,12.4-9l31.8-100.4c1.5-4.4,5.7-7.4,10.4-7.4h70.3
		c7.3,0,12.6,7,10.5,14c-6.9,23.8-20.7,71.4-27,92.6c-1.8,6.1-7.4,10.3-13.8,10.3h-22.9c-8.3,0-15.6,5.3-18.2,13.1l0,0
		c-1.5,4.4-5.6,7.4-10.2,7.4H257c-4.6,0-7.8-4.6-6.2-8.9l0,0c2.6-7,9.3-11.6,16.8-11.6H380"/>
	<path class="st11" d="M303,411v-11.2c0-5.1,4.2-9.3,9.3-9.3h9.7h-31V411"/>
	<path class="st11" d="M259.9,411l4.4-12.9c1.6-4.6,5.8-7.6,10.7-7.6h11h-31.1V411"/>
</g>
<path class="st12" d="M373.1,390.5c11.5,0,23-0.7,27.6-8.5c5.5-9.2,4.4-20.1-9.2-53.3c-8.9-21.7-18.8-37.8-34.1-38.7"/>
<path class="st1" d="M210.1,471.5c0,0-7.2,7.9-6.6,20.3c-6.8,0-53.4,0-53.4,0l39.1-18.7l4.4-7.7L210.1,471.5z"/>
<polyline class="st1" points="329.5,303.5 249.2,332 178.9,332 178.9,322 244.7,316.4 304.6,285 "/>
<g>
	<path class="st1" d="M296.6,304.5c1.4,4.1,4.1,8.6,8.4,13.6c22.7,26.3,20.9,49.7,20.9,49.7l5.4,12.3l42.4,1.5l16.2,2l7.2-16
		c0,0-9.6-40.2-32-68.8c-9.6-12.2-16.8-18.6-31-18.9c-3.9,5.5-10.7,13-19.4,14.8c-7.4,1.5-12.4-2-15.5-5.7"/>
	<path class="st13" d="M314.5,294.8c8.8-1.8,15.5-9.3,19.4-14.8c-6.1-0.1-13.6,0.8-23.1,2.9c-4.9,1.1-9.1,3.2-11.8,6.2
		C302.2,292.8,307.2,296.3,314.5,294.8z"/>
</g>
<path class="st11" d="M308.1,367.7h-54.9c-4.3,0-8.3,2.5-10.4,6.3l-49.2,91.4l19.7,7.2c0,0,25.1-35.8,32.7-46.6
	c7.1-10.2,13.5-22.7,16.5-30.1c1.4-3.3,4.6-5.5,8.2-5.5h25.7"/>
<path class="st14" d="M284.5,475.4l-17.6-92.7c-1.4-7.9,4.7-15,12.7-15H397c2.6,14.6-8.5,22.9-23.9,22.9c-15.5,0-53.7,0-53.7,0
	c-18.8,0-23.2,1.4-20.2,18.4c5.7,32.2,6.7,66.4,6.7,66.4H284.5z"/>
<path class="st13" d="M282.7,324.5c0,0-4.8-15.2-6.6-15.5c-1.8-0.3-0.4,9.4-0.4,9.4s-6.3-3.2-12.7-10.1c-6.1-6.5-9.3,0.5-2.7,11.3
	c2.9,4.8,7.6,10.5,22.1,15.9"/>
<path class="st15" d="M336.9,299.9l-4.9,46.9l-49.3-23v13.6c0,0,43.2,30.5,52.5,31.5c12,1.3,20.9-46.1,23.6-66.4"/>
<g>
	<rect x="96.9" y="332" class="st16" width="208.6" height="24.9"/>
	<rect x="240.1" y="332" class="st17" width="65.4" height="24.9"/>
	<line class="st18" x1="240.1" y1="332" x2="240.1" y2="356.9"/>
	<polygon class="st16" points="243.3,491.8 238.9,491.8 232.7,356.9 238.6,356.9 	"/>
	<polygon class="st19" points="300.5,491.8 295.6,491.8 285.7,356.9 291.6,356.9 	"/>
	<polygon class="st16" points="106.8,491.8 102.4,491.8 111.3,356.9 117.2,356.9 	"/>
</g>
<polygon class="st12" points="226.6,329.1 153.4,329.1 142.9,275.3 216.1,275.3 "/>
<rect x="155.7" y="329.1" class="st9" width="103.8" height="3"/>
<line class="st20" x1="226.7" y1="329.1" x2="226.7" y2="332"/>
<path class="st21" d="M303.7,288.7l-3.2-13.5c0,0-4.3,4.2-6.4,3c-4.6-2.4-10.2-18.8-12.4-28.8c-2.1-10,31.8-10.1,31.8-10.1
	l-0.7,26.8l11.2,16.3"/>
<path class="st12" d="M281.6,249.2c-8.4-3.6-1.3-8.1-1.6-9.9c-2.3-11.9,8.2-6.4,11.2-7.9c8.4-6.3,10.8,1.9,16.8,1.3
	c10-1,5.2,18.5,5.4,21.6c0.2,3.1-0.7,11.9-0.7,11.9l-3-4.8c0,0,3.5-4,0.4-8.2c-1.3-1.7-3.7-1-4.3,1c-0.4,1.4-0.4,1.8-0.4,1.8
	l-2.4-7.2C303,248.7,288.7,245.8,281.6,249.2z"/>
<path class="st21" d="M300.5,275.3c5.8-5.7,5-11.1,5-11.1"/>
<rect x="96.9" y="332" class="st20" width="208.6" height="24.9"/>
<polygon class="st16" points="155.8,491.8 151.3,491.8 156.6,356.9 162.5,356.9 "/>
<g id="one_color">
	<path class="st1" d="M89,252c0,0.1,0,0.4,0,0.5c0,0.1,0,0.3-0.1,0.4c0,0.1-0.1,0.1-0.1,0.3c0,0-0.1,0.1-0.3,0.1h-6.6
		c-0.3,0-0.4-0.1-0.6-0.3c-0.1-0.1-0.3-0.5-0.3-0.8v-13c0-0.1,0-0.1,0.1-0.3c0.1-0.1,0.1-0.1,0.3-0.1c0.1,0,0.3-0.1,0.5-0.1
		c0.3,0,0.5,0,0.8,0s0.5,0,0.8,0c0.1,0,0.3,0,0.4,0.1c0.1,0,0.1,0.1,0.3,0.1c0,0,0.1,0.1,0.1,0.3v11.6h4.4c0.1,0,0.1,0,0.3,0
		c0.1,0,0.1,0.1,0.1,0.3c0,0.1,0.1,0.3,0.1,0.4C89,251.6,89,251.9,89,252z"/>
	<path class="st1" d="M98.6,247.7c0,0.3,0,0.5-0.3,0.8c-0.1,0.1-0.4,0.3-0.6,0.3h-6c0,0.4,0,0.8,0.1,1.1c0.1,0.4,0.3,0.6,0.5,0.9
		c0.3,0.3,0.5,0.4,0.9,0.5c0.4,0.1,0.8,0.3,1.3,0.1c0.4,0,0.9,0,1.3-0.1c0.4,0,0.6-0.1,1-0.3c0.3-0.1,0.5-0.1,0.6-0.3
		c0.1,0,0.3-0.1,0.4-0.1H98l0.1,0.1c0,0.1,0,0.1,0,0.3c0,0.1,0,0.3,0,0.5c0,0.1,0,0.3,0,0.4s0,0.3,0,0.3c0,0.1,0,0.1-0.1,0.3
		l-0.1,0.1c-0.1,0.1-0.3,0.1-0.4,0.3c-0.3,0.1-0.5,0.3-0.8,0.3c-0.4,0.1-0.8,0.1-1.1,0.3c-0.5,0.1-0.9,0.1-1.4,0.1
		c-0.8,0-1.5-0.1-2.3-0.4c-0.6-0.3-1.1-0.5-1.7-1c-0.5-0.5-0.8-1-1-1.7c-0.3-0.8-0.4-1.7-0.4-2.4c0-0.8,0.1-1.7,0.4-2.4
		c0.3-0.6,0.5-1.3,1-1.8c0.4-0.5,1-0.9,1.5-1.1c0.6-0.3,1.4-0.4,2.2-0.4s1.4,0.1,2.2,0.4c0.5,0.3,1,0.5,1.4,1c0.4,0.5,0.6,1,0.9,1.5
		c0.1,0.6,0.3,1.3,0.3,1.9L98.6,247.7L98.6,247.7z M96,246.8c0-0.8-0.1-1.4-0.5-1.8c-0.4-0.5-0.9-0.6-1.5-0.6c-0.4,0-0.6,0-0.9,0.3
		c-0.3,0.1-0.5,0.3-0.6,0.5s-0.3,0.5-0.4,0.8c-0.1,0.4-0.1,0.6-0.1,1L96,246.8z"/>
	<path class="st1" d="M108.3,252.9c0,0.1,0,0.1-0.1,0.3c-0.1,0.1-0.3,0.1-0.4,0.1c-0.3,0-0.5,0-0.8,0c-0.3,0-0.5,0-0.8,0
		c-0.1,0-0.3,0-0.4-0.1s-0.1-0.1-0.1-0.3v-0.8c-0.4,0.4-0.9,0.8-1.4,1c-0.5,0.3-1.1,0.4-1.8,0.4c-0.5,0-1-0.1-1.4-0.3
		c-0.4-0.1-0.8-0.4-1.1-0.6c-0.4-0.3-0.6-0.6-0.8-1s-0.3-0.9-0.3-1.4c0-0.5,0.1-1,0.4-1.5c0.3-0.4,0.6-0.8,1-1
		c0.5-0.3,1-0.5,1.7-0.6c0.8-0.1,1.5-0.3,2.3-0.3h1v-0.6c0-0.3,0-0.5-0.1-0.8c0-0.3-0.1-0.4-0.3-0.6c-0.1-0.1-0.4-0.3-0.6-0.4
		c-0.3-0.1-0.6-0.1-0.9-0.1c-0.4,0-0.9,0-1.3,0.1s-0.6,0.3-1,0.4c-0.3,0.1-0.5,0.3-0.8,0.4c-0.1,0.1-0.3,0.1-0.5,0.1
		c-0.1,0-0.1,0-0.3-0.1c-0.1,0-0.1-0.1-0.1-0.3c0-0.1-0.1-0.3-0.1-0.4c0-0.1,0-0.3,0-0.5c0-0.1,0-0.4,0-0.5c0-0.1,0.1-0.3,0.3-0.4
		c0.1-0.1,0.4-0.3,0.5-0.4c0.3-0.1,0.6-0.3,0.9-0.4c0.4-0.1,0.8-0.3,1.1-0.3c1.1-0.1,2.2-0.1,3.3,0.1c0.5,0.1,1,0.4,1.4,0.6
		c0.4,0.4,0.6,0.8,0.8,1.3s0.3,1.1,0.3,1.8L108.3,252.9z M105.6,248.7h-1c-0.4,0-0.8,0-1.1,0.1c-0.3,0-0.5,0.1-0.8,0.3
		c-0.1,0.1-0.4,0.3-0.4,0.5c-0.1,0.3-0.1,0.4-0.1,0.6c0,0.4,0.1,0.8,0.4,1c0.3,0.3,0.6,0.4,1.1,0.4c0.4,0,0.8-0.1,1-0.3
		c0.4-0.3,0.8-0.5,1-0.9L105.6,248.7z"/>
	<path class="st1" d="M116.4,243.9c0,0.3,0,0.5,0,0.6c0,0.1,0,0.3-0.1,0.4c0,0.1,0,0.1-0.1,0.3H116c-0.1,0-0.1,0-0.3,0l-0.3-0.1
		c-0.1,0-0.3,0-0.3-0.1c-0.1,0-0.3,0-0.4,0c-0.1,0-0.3,0-0.5,0.1c-0.1,0.1-0.4,0.1-0.5,0.3c-0.1,0.1-0.4,0.4-0.5,0.5
		c-0.3,0.3-0.4,0.5-0.6,0.8v6.1c0,0.1,0,0.1-0.1,0.3c0,0.1-0.1,0.1-0.3,0.1c-0.1,0-0.3,0.1-0.4,0.1c-0.1,0-0.4,0-0.6,0
		c-0.3,0-0.5,0-0.6,0c-0.1,0-0.3,0-0.4-0.1c-0.1,0-0.1-0.1-0.3-0.1c0,0-0.1-0.1-0.1-0.3v-9.9c0-0.1,0-0.1,0-0.3
		c0-0.1,0.1-0.1,0.3-0.1c0.1,0,0.3-0.1,0.4-0.1s0.4,0,0.5,0c0.3,0,0.4,0,0.6,0c0.1,0,0.3,0,0.4,0.1c0.1,0,0.1,0.1,0.1,0.1
		s0,0.1,0,0.3v1.3c0.3-0.4,0.5-0.6,0.8-0.9c0.3-0.3,0.4-0.4,0.6-0.5c0.1-0.1,0.4-0.3,0.6-0.3c0.3,0,0.4-0.1,0.6-0.1
		c0.1,0,0.3,0,0.3,0c0.1,0,0.3,0,0.4,0c0.1,0,0.3,0,0.3,0.1c0.1,0,0.1,0,0.3,0.1l0.1,0.1v0.1c0,0.1,0,0.3,0,0.4
		C116.4,243.5,116.4,243.6,116.4,243.9z"/>
	<path class="st1" d="M126.6,252.9c0,0.1,0,0.1-0.1,0.3c0,0.1-0.1,0.1-0.3,0.1s-0.3,0.1-0.4,0.1c-0.1,0-0.4,0-0.6,0
		c-0.3,0-0.5,0-0.6,0c-0.1,0-0.3,0-0.4-0.1c-0.1,0-0.1-0.1-0.3-0.1c0,0-0.1-0.1-0.1-0.3v-5.7c0-0.4,0-0.8-0.1-1.1
		c0-0.3-0.1-0.5-0.3-0.8c-0.1-0.3-0.3-0.4-0.5-0.5c-0.3-0.1-0.5-0.1-0.8-0.1c-0.4,0-0.8,0.1-1,0.4c-0.4,0.4-0.8,0.8-1.1,1.1v6.6
		c0,0.1,0,0.1-0.1,0.3c0,0.1-0.1,0.1-0.3,0.1c-0.1,0-0.3,0.1-0.4,0.1c-0.1,0-0.4,0-0.6,0c-0.3,0-0.5,0-0.6,0s-0.3,0-0.4-0.1
		c-0.1,0-0.1-0.1-0.3-0.1c0,0-0.1-0.1-0.1-0.3v-9.9c0-0.1,0-0.1,0-0.3c0-0.1,0.1-0.1,0.3-0.1c0.1,0,0.3-0.1,0.4-0.1
		c0.1,0,0.4,0,0.5,0c0.3,0,0.4,0,0.6,0c0.1,0,0.3,0,0.4,0.1c0.1,0,0.1,0.1,0.1,0.1s0,0.1,0,0.3v1.1c0.5-0.5,1-1,1.7-1.3
		c0.5-0.3,1.1-0.4,1.8-0.4c0.6,0,1.1,0.1,1.7,0.4c0.4,0.3,0.8,0.5,1.1,0.9c0.3,0.4,0.5,0.9,0.6,1.3c0.1,0.6,0.3,1.3,0.1,1.8
		L126.6,252.9z"/>
	<path class="st1" d="M136.7,242.6c-0.4-0.4-0.8-0.8-1.4-1c-0.5-0.3-1.3-0.4-2.2-0.4h-1.5v9.8h1.5c0.6,0,1.4-0.1,2-0.3
		c0.5-0.3,1-0.5,1.4-0.9c0.4-0.5,0.6-1,0.8-1.5c0.3-0.8,0.3-1.4,0.3-2.2c0-0.6-0.1-1.3-0.3-1.9C137.4,243.5,137.1,243,136.7,242.6z"
		/>
	<path class="st1" d="M145.5,248.8c-0.3,0-0.5,0.1-0.8,0.3c-0.1,0.1-0.4,0.3-0.4,0.5c-0.1,0.3-0.1,0.4-0.1,0.6c0,0.4,0.1,0.8,0.4,1
		c0.3,0.3,0.6,0.4,1.1,0.4c0.4,0,0.8-0.1,1-0.3c0.4-0.3,0.8-0.5,1-0.9v-1.7h-1C146.3,248.7,145.9,248.7,145.5,248.8z"/>
	<path class="st1" d="M168.4,232.2h-38c-1.7,0-3,1.4-3,3l0,0v21.6c0,1.7,1.4,3,3,3l0,0h38c1.7,0,3-1.4,3-3v-21.6
		C171.4,233.5,170,232.2,168.4,232.2z M140.3,249.2c-0.3,0.9-0.8,1.7-1.5,2.3c-0.6,0.6-1.5,1-2.3,1.3c-1,0.3-2.2,0.4-3.3,0.4h-3.4
		c-0.3,0-0.4-0.1-0.6-0.3c-0.1-0.1-0.3-0.4-0.3-0.8v-12.4c0-0.3,0.1-0.5,0.3-0.8c0.1-0.1,0.4-0.3,0.6-0.3h3.7c1.1,0,2.2,0.1,3.2,0.5
		c0.9,0.3,1.7,0.8,2.3,1.3c0.6,0.6,1.1,1.4,1.4,2.2c0.4,1,0.5,2,0.5,3C140.8,247.2,140.7,248.3,140.3,249.2z M150.5,252.9
		c0,0.1,0,0.1-0.1,0.3c-0.1,0.1-0.3,0.1-0.4,0.1c-0.3,0-0.5,0-0.8,0c-0.3,0-0.5,0-0.8,0c-0.1,0-0.3,0-0.4-0.1
		c-0.1-0.1-0.1-0.1-0.1-0.3v-0.8c-0.4,0.4-0.9,0.8-1.4,1c-0.5,0.3-1.1,0.4-1.8,0.4c-0.5,0-1-0.1-1.4-0.3c-0.4-0.1-0.8-0.4-1.1-0.6
		c-0.4-0.3-0.6-0.6-0.8-1c-0.1-0.4-0.3-0.9-0.3-1.4c0-0.5,0.1-1,0.4-1.5c0.3-0.4,0.6-0.8,1-1c0.5-0.3,1-0.5,1.7-0.6
		c0.8-0.1,1.5-0.3,2.3-0.3h1v-0.6c0-0.3,0-0.5-0.1-0.8c0-0.3-0.1-0.4-0.3-0.6c-0.1-0.1-0.4-0.3-0.6-0.4c-0.3-0.1-0.6-0.1-0.9-0.1
		c-0.4,0-0.9,0-1.3,0.1c-0.4,0.1-0.6,0.3-1,0.4c-0.3,0.1-0.5,0.3-0.8,0.4c-0.1,0.1-0.3,0.1-0.5,0.1c-0.1,0-0.1,0-0.3-0.1
		c-0.1,0-0.1-0.1-0.1-0.3c0-0.1-0.1-0.3-0.1-0.4c0-0.1,0-0.3,0-0.5c0-0.1,0-0.4,0-0.5c0-0.1,0.1-0.3,0.3-0.4
		c0.1-0.1,0.4-0.3,0.5-0.4c0.3-0.1,0.6-0.3,0.9-0.4c0.4-0.1,0.8-0.3,1.1-0.3c1.1-0.1,2.2-0.1,3.3,0.1c0.5,0.1,1,0.4,1.4,0.6
		c0.4,0.4,0.6,0.8,0.8,1.3c0.1,0.5,0.3,1.1,0.3,1.8L150.5,252.9z M158.8,251.6c-0.3,0.4-0.5,0.8-0.9,1c-0.4,0.3-0.9,0.5-1.4,0.6
		c-0.5,0.1-1.1,0.3-1.7,0.3c-0.4,0-0.8,0-1-0.1c-0.3,0-0.6-0.1-0.9-0.3c-0.3-0.1-0.5-0.1-0.6-0.3c-0.1-0.1-0.3-0.1-0.4-0.3
		c-0.1-0.1-0.1-0.3-0.1-0.4c0-0.3-0.1-0.5-0.1-0.8c0-0.1,0-0.4,0-0.5c0-0.1,0-0.3,0.1-0.3c0,0,0-0.1,0.1-0.1h0.1
		c0.1,0,0.3,0.1,0.4,0.1c0.1,0.1,0.4,0.3,0.6,0.3c0.3,0.1,0.5,0.3,0.8,0.3c0.4,0.1,0.8,0.1,1,0.1c0.3,0,0.5,0,0.6-0.1
		c0.1,0,0.4-0.1,0.5-0.3c0.1-0.1,0.3-0.3,0.4-0.4c0.1-0.1,0.1-0.4,0.1-0.5c0-0.3-0.1-0.4-0.3-0.5c-0.1-0.1-0.4-0.3-0.5-0.4
		c-0.3-0.1-0.5-0.3-0.8-0.4c-0.3-0.1-0.6-0.3-0.9-0.4c-0.3-0.1-0.6-0.3-0.9-0.4c-0.3-0.1-0.5-0.4-0.8-0.6c-0.3-0.3-0.4-0.5-0.5-0.9
		c-0.1-0.4-0.3-0.8-0.3-1.1c0-0.5,0.1-0.9,0.3-1.3c0.1-0.4,0.5-0.8,0.8-1c0.4-0.3,0.8-0.5,1.3-0.6c0.5-0.1,1.1-0.3,1.7-0.3
		c0.3,0,0.6,0,0.9,0.1c0.3,0,0.5,0.1,0.8,0.1c0.3,0,0.4,0.1,0.6,0.3c0.1,0,0.3,0.1,0.4,0.3l0.1,0.1c0,0,0,0.1,0.1,0.3
		c0,0.1,0,0.1,0,0.3c0,0.1,0,0.3,0,0.4c0,0.3,0,0.4,0,0.5c0,0.1,0,0.3,0,0.3s0,0.1-0.1,0.1h-0.1c-0.1,0-0.3,0-0.3-0.1
		c-0.1-0.1-0.4-0.1-0.5-0.3c-0.3-0.1-0.5-0.1-0.8-0.3c-0.3-0.1-0.6-0.1-0.9-0.1c-0.3,0-0.4,0-0.6,0.1c-0.1,0-0.4,0.1-0.5,0.3
		c-0.1,0.1-0.3,0.3-0.3,0.4s-0.1,0.3-0.1,0.4c0,0.3,0.1,0.4,0.3,0.6c0.1,0.1,0.4,0.3,0.5,0.4c0.3,0.1,0.5,0.3,0.8,0.4
		c0.3,0.1,0.6,0.3,0.9,0.4c0.3,0.1,0.6,0.3,0.9,0.4c0.3,0.1,0.5,0.4,0.8,0.6c0.3,0.3,0.4,0.5,0.5,0.9c0.1,0.4,0.3,0.8,0.3,1.1
		C159.1,250.6,159,251.1,158.8,251.6L158.8,251.6z M169.7,252.9c0,0.1,0,0.1-0.1,0.3c0,0.1-0.1,0.1-0.3,0.1c-0.1,0-0.3,0.1-0.4,0.1
		c-0.1,0-0.4,0-0.6,0s-0.5,0-0.6,0s-0.3,0-0.4-0.1c-0.1,0-0.1-0.1-0.3-0.1c0,0-0.1-0.1-0.1-0.3v-5.7c0-0.4,0-0.8-0.1-1.1
		c0-0.3-0.1-0.5-0.3-0.8c-0.1-0.3-0.3-0.4-0.5-0.5c-0.3-0.1-0.5-0.1-0.8-0.1c-0.4,0-0.8,0.1-1,0.4c-0.4,0.4-0.8,0.8-1.1,1.1v6.6
		c0,0.1,0,0.1-0.1,0.3c0,0.1-0.1,0.1-0.3,0.1c-0.1,0-0.3,0.1-0.4,0.1c-0.1,0-0.4,0-0.6,0s-0.5,0-0.6,0s-0.3,0-0.4-0.1
		c-0.1,0-0.1-0.1-0.3-0.1c0,0-0.1-0.1-0.1-0.3v-14.5c0-0.1,0-0.1,0.1-0.3c0-0.1,0.1-0.1,0.3-0.1c0.1,0,0.3-0.1,0.4-0.1
		c0.5,0,0.9,0,1.4,0c0.1,0,0.3,0,0.4,0.1c0.1,0,0.1,0.1,0.3,0.1c0,0,0.1,0.1,0.1,0.3v5.5c0.4-0.4,0.9-0.8,1.5-1
		c0.5-0.3,1-0.4,1.5-0.4c0.6,0,1.1,0.1,1.7,0.4c0.4,0.3,0.8,0.5,1.1,0.9c0.3,0.4,0.5,0.9,0.6,1.4c0.1,0.6,0.3,1.3,0.1,1.9
		L169.7,252.9z"/>
</g>
</svg>
