<svg height="12" viewBox="0 0 14 12" width="14" xmlns="http://www.w3.org/2000/svg"><path d="m5.21292523 12.7683268c-.15369427.1790156-.22848037.4069071-.2102255.6424538.01825488.2355468.1266064.4498944.30621082.6029998l4.35938199 3.7369496c.16193841.1383838.36274206.212581.57355636.212581.0259102 0 .0524092-.0011777.0789082-.0035332.2384911-.0211992.4534276-.1348505.6053552-.3191659l7.4562333-9.07502848c.1495722-.18254875.2196474-.41220686.1966816-.64716477-.0235547-.23495791-.1360283-.44695001-.3185771-.59711108l-1.3649935-1.12120267c-.376286-.30856628-.9333541-.25439052-1.2430982.12189546l-5.73850834 6.98455084-2.30600296-1.9756486c-.36980844-.3156327-.92805431-.2738231-1.24545359.0959853z" fill="#fff" transform="translate(-5 -6)"/></svg>