<svg xmlns="http://www.w3.org/2000/svg" width="22" height="20" viewBox="0 0 22 20">
    <g fill="none" fill-rule="nonzero">
        <path fill="#F00" d="M21.666 16.863L12.76 1.053c-.76-1.38-2.83-1.38-3.59 0L.264 16.863c-.76 1.38.207 3.107 1.795 3.107h17.743c1.657-.07 2.624-1.726 1.864-3.107z"/>
        <path fill="#FDF3F4" d="M10.965 2.089l8.906 15.81H2.06z"/>
        <g fill="#F00" transform="translate(9.466 7.67)">
            <path d="M.05 1.668l.552 3.659c.069.414.414.76.897.76.414 0 .829-.346.898-.76l.552-3.66C3.087.77 2.397.012 1.499.012.601.011-.02.771.049 1.668z"/>
            <circle cx="1.499" cy="7.674" r="1"/>
        </g>
    </g>
</svg>
