<svg height="91" viewBox="0 0 91 91" width="91" xmlns="http://www.w3.org/2000/svg"><g fill="none"><g fill="#eceff9" transform="translate(3.937383 3.67489)"><path d="m12.0223468 56.0923226h-.79773c-3.17554038-.0030759-5.74919402-2.5757045-5.75227017-5.7512446v-49.72688725c0-.16200702.00820288-.32298849.02153276-.48089407-2.9786712.25223871-5.26830017 2.74181296-5.27137632 5.73073763v49.72688729c.00307615 3.1755401 2.57672979 5.749194 5.75227013 5.7522699h.79773c2.98892467-.0041012 5.4764481-2.2937305 5.7286868-5.2713761-.1579053.0123043-.3168362.0205072-.4788432.0205072z"/><path d="m19.4818413 56.0923226c1.2765733-1.6457028 1.9676661-3.6697635 1.9666408-5.7522699v-31.8528105c0-.162007.0082029-.3209379.0215325-.4788432-2.9776457.2522384-5.2672749 2.7407874-5.2713761 5.7286868v31.8538358c.0010253 2.0825064-.6900675 4.106567-1.9666407 5.7522699h19.3905843v-5.2498436z"/></g><path d="m9.91215587 68.6919472h29.48525423v-3.6748905h-21.2280296c1.2765732-1.6457029 1.967666-3.6697635 1.9666407-5.7522699v-31.8528105c.0041012-3.1755404 2.5777551-5.7471434 5.7522699-5.7502193h36.7673612c3.1745148.0030759 5.7471434 2.5757045 5.7502193 5.7502193v14.7682609h3.6748905v-14.7682609c-.006152-5.1575613-4.1527081-9.35436-9.3092439-9.4240845-.1640576-5.0878368-4.3331718-9.12980608-9.4240844-9.13595838h-14.241226c-.0164058 0-.0317862-.00615202-.0430653-.01845635l-5.1678147-5.65383556c-1.7872027-1.95331087-4.311639-3.06685177-6.9591186-3.06890262h-17.02405333c-5.20472772.00615203-9.42203362 4.22345819-9.42716062 9.42818591v49.7268873c.00615229 5.2037024 4.22345819 9.419983 9.42716062 9.4261351zm-5.75227013-59.1530224c.00307615-3.17554007 2.57672979-5.74919398 5.75227013-5.75329542h17.02405333c1.6149419.0010253 3.1550329.68083909 4.2449904 1.87230762l5.1688403 5.6538353c.7074983.7731214 1.7072245 1.2140263 2.7561679 1.2140263h14.241226c3.0627506.0041015 5.5861616 2.4024187 5.7450925 5.4600423h-33.2052605c-5.2026772.0051268-9.4210084 4.2214074-9.4271607 9.4251098v31.8548614c-.0030761 3.1745148-2.5757044 5.7481687-5.7502192 5.7522699h-.79773003c-3.17554034-.0030759-5.74919398-2.5767298-5.75227013-5.7522699z" fill="#c7ccda"/><path d="m83.4956049 48.3739125c-.1194843-3.75241-3.1935566-6.7327101-6.9474792-6.7372474h-10.5032697c-.0120997-.0007563-.0241993-.0060498-.0317615-.0151245l-3.8121522-4.1713612c-1.3181078-1.4383483-3.1791882-2.258101-5.13026-2.2603695h-12.5571887c-3.8378638.0037811-6.9482351 3.1126399-6.9535288 6.9497477v36.677124c.0052937 3.8378641 3.115665 6.9474792 6.9535288 6.9512603h38.898926c3.837864-.0045375 6.9474792-3.1141526 6.9520165-6.9512603v-23.4945338c-.0052937-3.8038336-3.0649976-6.8990805-6.8688312-6.9482353zm-38.9821113 34.6837034c-2.3420422-.0022688-4.2401778-1.8996482-4.2432028-4.2409343v-36.677124c.0037811-2.3405299 1.9019167-4.2371531 4.2432028-4.2394217h12.5571887c1.1903049.0015124 2.3261615.5013799 3.1307896 1.378606l3.8098834 4.1698488c.5217983.570953 1.2598782.8968879 2.0327445.8976441h10.5040259c2.2573446.0022687 4.1191812 1.7703331 4.2371532 4.0254089h-24.4897316c-3.8378641.0045375-6.9474792 3.1141526-6.9512603 6.9512603v23.4937776c-.0037813 2.3412861-1.9011607 4.2386655-4.2424468 4.2409343zm43.1406164-4.2409343c-.0030249 2.3412861-1.9004043 4.2379093-4.2416904 4.2409343h-32.8052297c.0136123-.0166372.0257119-.0340303.039324-.0514236.0204182-.0279805.0415926-.0567173.062767-.0846977.0415925-.0567173.0816728-.1141907.1217529-.1716641.0196621-.029493.0408363-.0582296.0604984-.0884788.0408363-.0612545.0809166-.1240216.1202405-.1867887.0158808-.0257117.0317615-.0514236.0476423-.0778915.1081408-.1784703.2079631-.3622339.3002232-.5512913.0120997-.0264681.0241993-.052936.036299-.0786479.0325177-.0688169.0642794-.1376336.0945286-.2072067.0136122-.0332741.0279805-.0665482.0415927-.0998223.0264681-.065792.0529359-.1308278.0771353-.197376.0128558-.0340303.0257119-.0688168.0385677-.1028472.0257119-.0703293.0491549-.1406586.0718419-.2117442.0098309-.0302492.0196618-.0604984.0294928-.0907476.0620109-.2026692.1157032-.40912.1595644-.6193517.0068062-.0317617.0120997-.0635232.0181495-.095285.0143684-.0741103.0279804-.1474645.0393239-.2223313.0060499-.0385677.0113435-.0771355.0166372-.1157032.0105871-.0703293.0189057-.1406586.0272242-.2102317.0045373-.0400801.0090748-.079404.0128559-.1194841.006806-.0741106.0120997-.1489774.0166369-.2238439.0022688-.0355429.0052937-.0703295.0068062-.105116.0052935-.1096534.0083186-.2193066.0083186-.3304721v-23.4930215c.0022686-2.3412861 1.8996482-4.2386655 4.2409343-4.2409342h27.1168723c2.3412861.0022687 4.2386655 1.8996481 4.2416904 4.2409342z" fill="#3057d5"/><path d="m17.7239014 77.0496148c-.5140611-.525269-1.3561352-.5372239-1.8851398-.0268986-.5297522.5103253-.5484317 1.3516523-.0425896 1.8851401l3.3279485 3.4542221h-7.5749306c-2.35735882-.0014945-4.61758431-.9407021-6.28155852-2.6106538-1.66397402-1.6699514-2.59570994-3.9339128-2.58973248-6.2912718 0-.3541642-.14196467-.694132-.3930178-.9436907-.25105312-.2495588-.59176809-.3892819-.94593223-.3870669-.74045734.0037624-1.33895311.6044967-1.33895311 1.3457012-.00223847 3.0679291 1.21492082 6.0103315 3.38399002 8.1801478 2.16981633 2.1690692 5.11221888 3.3869757 8.18014782 3.3847342h7.7527597l-3.5169854 3.618602c-.5155554.5304993-.5028534 1.3785508.0268987 1.8941063.5304991.5155556 1.3785507.5028533 1.8941061-.0276457l5.6195555-5.7809466c.5036005-.5185444.5050948-1.3426859.0037358-1.8627245z" fill="#0352cc"/></g></svg>